<svg width="24" height="24" viewBox="0 0 24 24" fill="none" xmlns="http://www.w3.org/2000/svg">
<path d="M14.2199 21.6303C13.0399 21.6303 11.3699 20.8003 10.0499 16.8303L9.32988 14.6703L7.16988 13.9503C3.20988 12.6303 2.37988 10.9603 2.37988 9.78031C2.37988 8.61031 3.20988 6.93032 7.16988 5.60032L15.6599 2.77032C17.7799 2.06032 19.5499 2.27032 20.6399 3.35032C21.7299 4.43032 21.9399 6.21032 21.2299 8.33032L18.3999 16.8203C17.0699 20.8003 15.3999 21.6303 14.2199 21.6303ZM7.63988 7.03032C4.85988 7.96032 3.86988 9.06032 3.86988 9.78031C3.86988 10.5003 4.85988 11.6003 7.63988 12.5203L10.1599 13.3603C10.3799 13.4303 10.5599 13.6103 10.6299 13.8303L11.4699 16.3503C12.3899 19.1303 13.4999 20.1203 14.2199 20.1203C14.9399 20.1203 16.0399 19.1303 16.9699 16.3503L19.7999 7.86032C20.3099 6.32032 20.2199 5.06032 19.5699 4.41032C18.9199 3.76032 17.6599 3.68032 16.1299 4.19032L7.63988 7.03032Z" fill="white"/>
<path d="M10.11 14.4C9.92005 14.4 9.73005 14.33 9.58005 14.18C9.29005 13.89 9.29005 13.41 9.58005 13.12L13.16 9.53C13.45 9.24 13.93 9.24 14.22 9.53C14.51 9.82 14.51 10.3 14.22 10.59L10.64 14.18C10.5 14.33 10.3 14.4 10.11 14.4Z" fill="white"/>
</svg>
