<svg width="24" height="24" viewBox="0 0 24 24" fill="none" xmlns="http://www.w3.org/2000/svg">
<path d="M2.00014 22.7502C1.80014 22.7502 1.61011 22.6702 1.47011 22.5302C1.28011 22.3402 1.20016 22.0602 1.27016 21.8002L2.53017 17.0902C1.69017 15.5302 1.25014 13.7702 1.25014 11.9902C1.25014 6.06023 6.07014 1.24023 12.0001 1.24023C17.9301 1.24023 22.7501 6.06023 22.7501 11.9902C22.7501 17.9202 17.9301 22.7402 12.0001 22.7402C10.1901 22.7402 8.42017 22.2902 6.84017 21.4302L2.20015 22.7202C2.13015 22.7402 2.07014 22.7502 2.00014 22.7502ZM6.94014 19.8802C7.07014 19.8802 7.20015 19.9203 7.32015 19.9803C8.73015 20.8103 10.3501 21.2502 12.0001 21.2502C17.1001 21.2502 21.2501 17.1002 21.2501 12.0002C21.2501 6.90024 17.1001 2.75024 12.0001 2.75024C6.90014 2.75024 2.75014 6.90024 2.75014 12.0002C2.75014 13.6302 3.18013 15.2202 3.99013 16.6202C4.09013 16.7902 4.12015 17.0002 4.07015 17.1902L3.07015 20.9302L6.75014 19.9102C6.81014 19.8902 6.88014 19.8802 6.94014 19.8802Z" fill="white"/>
<path d="M14.74 17.7603C14.12 17.7603 13.48 17.6203 12.81 17.3303C12.18 17.0603 11.55 16.7003 10.94 16.2503C10.34 15.8103 9.75002 15.3103 9.21002 14.7703C8.67002 14.2203 8.16998 13.6403 7.72998 13.0403C7.27998 12.4103 6.91997 11.7903 6.65997 11.1803C6.37997 10.5203 6.23999 9.87029 6.23999 9.25029C6.23999 8.81029 6.31997 8.39029 6.46997 8.00029C6.62997 7.59029 6.88998 7.22028 7.22998 6.90028C7.86998 6.27028 8.79002 6.0403 9.52002 6.3903C9.77002 6.5003 9.98001 6.6803 10.14 6.9203L11.3 8.55027C11.42 8.71027 11.51 8.88027 11.58 9.05027C11.66 9.25027 11.71 9.4503 11.71 9.6403C11.71 9.9003 11.64 10.1603 11.5 10.3903C11.41 10.5403 11.28 10.7203 11.11 10.8903L10.98 11.0303C11.04 11.1103 11.11 11.2103 11.22 11.3303C11.43 11.5703 11.66 11.8303 11.91 12.0803C12.16 12.3203 12.41 12.5603 12.66 12.7703C12.78 12.8703 12.88 12.9503 12.96 13.0003L13.1 12.8603C13.28 12.6803 13.46 12.5403 13.64 12.4503C13.97 12.2403 14.48 12.1903 14.93 12.3803C15.09 12.4403 15.25 12.5303 15.42 12.6503L17.09 13.8303C17.32 13.9903 17.5 14.2103 17.62 14.4603C17.72 14.7103 17.76 14.9303 17.76 15.1603C17.76 15.4603 17.69 15.7503 17.56 16.0303C17.43 16.2903 17.28 16.5203 17.1 16.7303C16.78 17.0803 16.41 17.3403 16.01 17.5103C15.61 17.6803 15.18 17.7603 14.74 17.7603ZM8.78998 7.74028C8.72998 7.74028 8.53003 7.74028 8.28003 7.99028C8.09003 8.17028 7.96 8.36029 7.87 8.57029C7.78 8.78029 7.73999 9.0203 7.73999 9.2603C7.73999 9.6803 7.83998 10.1303 8.03998 10.6103C8.24998 11.1103 8.56 11.6403 8.94 12.1703C9.33 12.7003 9.77001 13.2303 10.26 13.7203C10.75 14.2003 11.27 14.6503 11.81 15.0503C12.33 15.4303 12.86 15.7303 13.39 15.9603C14.15 16.2903 14.85 16.3703 15.42 16.1303C15.62 16.0503 15.8 15.9103 15.98 15.7303C16.07 15.6303 16.14 15.5303 16.2 15.4003C16.23 15.3303 16.25 15.2503 16.25 15.1803C16.25 15.1603 16.25 15.1303 16.22 15.0703L14.55 13.9103C14.48 13.8603 14.41 13.8203 14.35 13.8003C14.31 13.8203 14.25 13.8503 14.14 13.9603L13.76 14.3403C13.47 14.6303 13.01 14.7103 12.64 14.5803L12.46 14.5003C12.23 14.3803 11.97 14.2003 11.68 13.9503C11.4 13.7103 11.13 13.4603 10.84 13.1803C10.56 12.8903 10.31 12.6203 10.07 12.3403C9.81001 12.0303 9.63001 11.7803 9.51001 11.5703L9.40002 11.3103C9.37002 11.2103 9.35999 11.1003 9.35999 11.0003C9.35999 10.7203 9.46002 10.4703 9.65002 10.2703L10.03 9.88029C10.14 9.77029 10.18 9.7103 10.2 9.6703C10.17 9.6003 10.13 9.54029 10.08 9.47029L8.90997 7.82029L8.78998 7.74028Z" fill="white"/>
</svg>
