<svg width="24" height="24" viewBox="0 0 24 24" fill="none" xmlns="http://www.w3.org/2000/svg">
<path d="M17 20.75H7C3.56 20.75 1.25 18.44 1.25 15V9C1.25 5.56 3.56 3.25 7 3.25H17C20.44 3.25 22.75 5.56 22.75 9V15C22.75 18.44 20.44 20.75 17 20.75ZM7 4.75C4.42 4.75 2.75 6.42 2.75 9V15C2.75 17.58 4.42 19.25 7 19.25H17C19.58 19.25 21.25 17.58 21.25 15V9C21.25 6.42 19.58 4.75 17 4.75H7Z" fill="white"/>
<path d="M10.5901 15.5302C10.3001 15.5302 10.0201 15.4602 9.77014 15.3202C9.19014 14.9902 8.8501 14.3202 8.8501 13.4902V10.5302C8.8501 9.70022 9.18014 9.03023 9.77014 8.70023C10.3501 8.37023 11.1001 8.4302 11.8101 8.8602L14.2802 10.3402C14.9602 10.7502 15.3501 11.3602 15.3501 12.0102C15.3501 12.6602 14.9602 13.2702 14.2802 13.6802L11.8101 15.1602C11.4001 15.4002 10.9801 15.5302 10.5901 15.5302ZM10.5901 9.97022C10.5501 9.97022 10.5201 9.98021 10.5001 9.99021C10.4301 10.0302 10.3501 10.2102 10.3501 10.5202V13.4802C10.3501 13.7802 10.4301 13.9602 10.5001 14.0102C10.5801 14.0502 10.7702 14.0302 11.0302 13.8702L13.5001 12.3902C13.7501 12.2402 13.8401 12.0902 13.8401 12.0002C13.8401 11.9102 13.7501 11.7702 13.5001 11.6102L11.0302 10.1302C10.8502 10.0202 10.6901 9.97022 10.5901 9.97022Z" fill="white"/>
</svg>
