<svg width="1293" height="456" viewBox="0 0 1293 456" fill="none" xmlns="http://www.w3.org/2000/svg">
<g clip-path="url(#clip0_5_890)">
<path d="M103.543 77.6111L47.3236 105.031C41.5263 107.859 35.9596 107.737 32.0304 104.813C28.0684 101.823 26.477 96.5072 27.5789 90.212L36.4882 37.1348C37.9914 27.5564 48.305 22.5261 56.8787 27.2731L104.156 52.8627C109.795 55.8701 113.004 60.3965 112.922 65.36C112.672 70.3218 109.341 74.7836 103.543 77.6111ZM48.7695 36.6521C48.1628 36.948 47.7518 37.8161 47.5396 38.9209L38.6633 92.0656C38.2028 94.5432 38.6616 95.6545 38.8276 95.8239C38.9608 95.9258 40.1674 96.0048 42.4594 94.887L98.6789 67.4669C100.903 66.3819 101.551 65.3149 101.62 65.1143C101.555 64.9795 100.961 63.9339 98.7927 62.7385L51.4822 37.0814C50.2804 36.4994 49.3762 36.3562 48.7695 36.6521Z" fill="#E32652"/>
<path d="M139.231 126.462L63.9342 163.187C54.2946 167.888 48.1836 165.111 45.42 163.038C42.6564 160.964 38.3459 155.891 40.1945 145.309L48.6793 94.4417C48.9654 92.6332 50.1543 91.1354 51.7721 90.3464L89.3193 72.0334C90.9371 71.2443 92.882 71.2971 94.4504 72.1176L139.791 96.8161C149.235 101.806 150.512 108.36 150.444 111.814C150.377 115.268 148.87 121.761 139.231 126.462ZM59.2654 99.2084L51.2442 147.263C50.5338 151.281 51.318 153.402 52.1499 154.081C53.0492 154.727 55.2949 154.884 58.9351 153.108L134.231 116.384C137.872 114.608 139.199 112.709 139.176 111.636C139.22 110.529 137.964 108.639 134.36 106.725L91.5218 83.3925L59.2325 99.1411L59.2654 99.2084Z" fill="#E32652"/>
<path d="M114.689 171.81C111.925 173.158 108.515 171.984 107.167 169.22L94.0159 142.256C92.6679 139.493 93.842 136.083 96.6058 134.735C99.3696 133.387 102.779 134.561 104.127 137.325L117.278 164.289C118.626 167.052 117.452 170.462 114.689 171.81Z" fill="#E32652"/>
<path d="M1185.76 436.521L1153.47 420.772C1142.55 415.446 1134.71 406.366 1131.38 395.062C1128.02 383.824 1129.58 371.901 1135.81 361.509C1151.59 334.989 1186.94 324.443 1214.71 337.989C1240.26 350.449 1254.39 382.712 1246.38 409.927C1242.55 422.912 1234.06 432.791 1222.57 437.868C1210.95 442.88 1197.89 442.439 1185.76 436.521ZM1209.71 348.067C1187.13 337.053 1158.3 345.69 1145.43 367.284C1140.84 374.977 1139.69 383.676 1142.12 391.87C1144.55 400.064 1150.31 406.715 1158.34 410.628L1190.62 426.376C1199.72 430.815 1209.46 431.222 1217.84 427.55C1226.22 423.878 1232.52 416.437 1235.44 406.681C1242.07 384.544 1230.54 358.227 1209.71 348.067Z" fill="white"/>
<path d="M1209.35 327.032C1197.29 321.147 1192.24 306.505 1198.13 294.438C1204.01 282.372 1218.66 277.331 1230.72 283.216C1242.79 289.101 1247.83 303.743 1241.94 315.809C1236.06 327.875 1221.49 332.95 1209.35 327.032ZM1225.79 293.327C1219.32 290.171 1211.4 292.899 1208.24 299.37C1205.08 305.841 1207.81 313.764 1214.28 316.92C1220.75 320.077 1228.68 317.349 1231.83 310.877C1234.99 304.406 1232.33 296.516 1225.79 293.327Z" fill="white"/>
<path d="M1251.46 357.585C1241.21 352.587 1236.97 340.252 1241.96 330.006C1246.96 319.759 1259.3 315.512 1269.54 320.509C1279.79 325.507 1284.04 337.842 1279.04 348.088C1274.04 358.335 1261.71 362.582 1251.46 357.585ZM1264.61 330.621C1259.96 328.352 1254.34 330.286 1252.08 334.937C1249.81 339.588 1251.74 345.205 1256.39 347.473C1261.04 349.742 1266.66 347.808 1268.93 343.157C1271.2 338.505 1269.26 332.889 1264.61 330.621Z" fill="white"/>
<path d="M1263.25 396.71C1254.89 392.633 1251.4 382.504 1255.48 374.146C1259.55 365.787 1269.68 362.299 1278.04 366.376C1286.4 370.453 1289.89 380.582 1285.81 388.941C1281.73 397.299 1271.6 400.787 1263.25 396.71ZM1273.11 376.487C1270.34 375.139 1266.93 376.314 1265.59 379.077C1264.24 381.841 1265.41 385.251 1268.18 386.599C1270.94 387.947 1274.35 386.773 1275.7 384.009C1277.05 381.245 1275.87 377.835 1273.11 376.487Z" fill="white"/>
<path d="M1155.01 327.234C1144.77 322.236 1140.52 309.901 1145.52 299.655C1150.51 289.409 1162.85 285.161 1173.1 290.159C1183.34 295.156 1187.59 307.491 1182.59 317.738C1177.6 327.984 1165.26 332.231 1155.01 327.234ZM1168.16 300.27C1163.51 298.001 1157.9 299.935 1155.63 304.586C1153.36 309.238 1155.29 314.854 1159.95 317.122C1164.6 319.391 1170.21 317.457 1172.48 312.806C1174.75 308.155 1172.82 302.539 1168.16 300.27Z" fill="white"/>
</g>
<defs>
<clipPath id="clip0_5_890">
<rect width="1293" height="456" fill="white"/>
</clipPath>
</defs>
</svg>
