<svg width="48" height="48" viewBox="0 0 48 48" fill="none" xmlns="http://www.w3.org/2000/svg">
<g clip-path="url(#clip0_1_5044)">
<path d="M16.4002 48.0001C20.8163 48.0001 24.4003 44.4161 24.4003 40.0001V32H16.4002C11.9842 32 8.4001 35.5841 8.4001 40.0001C8.4001 44.4161 11.9842 48.0001 16.4002 48.0001Z" fill="#0ACF83"/>
<path d="M8.4001 24.0001C8.4001 19.5841 11.9842 16 16.4002 16H24.4003V31.9999H16.4002C11.9842 32.0001 8.4001 28.4161 8.4001 24.0001Z" fill="#A259FF"/>
<path d="M8.4001 8.00006C8.4001 3.58406 11.9842 0 16.4002 0H24.4003V15.9999H16.4002C11.9842 15.9999 8.4001 12.4161 8.4001 8.00006Z" fill="#F24E1E"/>
<path d="M24.3999 0H32.4C36.816 0 40.4001 3.58406 40.4001 8.00006C40.4001 12.4161 36.816 15.9999 32.4 15.9999H24.3999V0Z" fill="#FF7262"/>
<path d="M40.4001 24.0001C40.4001 28.4161 36.816 32.0001 32.4 32.0001C27.9839 32.0001 24.3999 28.4161 24.3999 24.0001C24.3999 19.5841 27.9839 16 32.4 16C36.816 16 40.4001 19.5841 40.4001 24.0001Z" fill="#1ABCFE"/>
</g>
<defs>
<clipPath id="clip0_1_5044">
<rect width="48" height="48" rx="6" fill="white"/>
</clipPath>
</defs>
</svg>
