<svg width="67" height="68" viewBox="0 0 67 68" fill="none" xmlns="http://www.w3.org/2000/svg">
<path d="M32.7446 35.2966C26.8088 32.4435 24.3341 25.3606 27.2291 19.5109C30.1242 13.6613 37.3115 11.2224 43.2473 14.0755C49.1831 16.9286 51.6578 24.0115 48.7628 29.8611C45.8677 35.7108 38.6804 38.1496 32.7446 35.2966ZM41.8774 16.8435C37.4957 14.7374 32.1749 16.5429 30.0379 20.861C27.9008 25.179 29.7329 30.4226 34.1145 32.5286C38.4962 34.6346 43.817 32.8291 45.954 28.5111C48.0911 24.1931 46.259 18.9495 41.8774 16.8435Z" fill="white"/>
<path d="M7.52728 46.0184C6.75956 45.6494 6.43343 44.7159 6.80787 43.9594C10.7076 36.0799 21.7315 33.4293 31.3748 38.0644C32.1425 38.4334 32.4687 39.3668 32.0942 40.1234C31.7198 40.88 30.7726 41.2014 30.0049 40.8324C21.9158 36.9443 12.7674 38.9431 9.61661 45.3094C9.24216 46.066 8.295 46.3874 7.52728 46.0184Z" fill="white"/>
<path d="M35.7684 58.2219C31.6864 56.2599 29.9885 51.4006 31.9795 47.3779C33.9704 43.3551 38.9012 41.6819 42.9833 43.6439C47.0653 45.606 48.7631 50.4653 46.7722 54.488C44.7812 58.5108 39.8504 60.184 35.7684 58.2219ZM41.6134 46.4119C39.0855 45.1969 36.0211 46.2367 34.7882 48.7279C33.5553 51.2191 34.6104 54.239 37.1383 55.454C39.6661 56.669 42.7305 55.6292 43.9634 53.138C45.1964 50.6468 44.1412 47.6269 41.6134 46.4119Z" fill="white"/>
<path d="M42.3351 62.7489C41.9793 62.5779 41.6874 62.2778 41.5435 61.866L40.5843 59.1206C40.3061 58.3245 40.7445 57.4386 41.5524 57.1645C42.3602 56.8904 43.2592 57.3224 43.5373 58.1186L44.4965 60.8639C44.7747 61.66 44.3363 62.5459 43.5284 62.82C43.1106 62.9618 42.6908 62.9199 42.3351 62.7489Z" fill="white"/>
</svg>
