<svg width="390" height="440" viewBox="0 0 390 440" fill="none" xmlns="http://www.w3.org/2000/svg">
<g clip-path="url(#clip0_1_3498)">
<path d="M43.8665 65.8191L32.6315 71.2988C22.4639 76.2579 16.001 74.0325 11.0419 63.8649L5.56224 52.6299C0.603169 42.4623 2.82855 35.9994 12.9962 31.0403L24.2311 25.5607C34.3987 20.6016 40.8617 22.827 45.8207 32.9946L51.3004 44.2295C56.2594 54.3971 54.0341 60.8601 43.8665 65.8191ZM14.3661 33.849C5.7339 38.0592 4.16078 42.6279 8.37097 51.26L13.8506 62.495C18.0608 71.1271 22.6294 72.7002 31.2616 68.49L42.4965 63.0104C51.1287 58.8002 52.7018 54.2316 48.4916 45.5994L43.012 34.3645C38.8018 25.7323 34.2332 24.1592 25.601 28.3694L14.3661 33.849Z" fill="#E32652"/>
<path d="M27.3881 57.6999C27.0324 57.8734 26.6127 57.9159 26.1948 57.772L19.2583 55.3835C17.6147 54.8176 16.747 53.0387 17.313 51.3951L19.7014 44.4586C19.9796 43.6507 20.8784 43.2123 21.6863 43.4905C22.4941 43.7687 22.9325 44.6675 22.6543 45.4754L20.2659 52.4119L27.2116 54.8191C28.0194 55.0972 28.4578 55.996 28.1796 56.8039C28.0266 57.203 27.7439 57.5264 27.3881 57.6999Z" fill="#E32652"/>
<path d="M36.376 53.3153C36.0202 53.4889 35.6005 53.5313 35.1826 53.3874C34.3748 53.1092 33.9364 52.2105 34.2146 51.4026L36.5939 44.4473L29.6482 42.0401C28.8403 41.762 28.4019 40.8632 28.6801 40.0553C28.9583 39.2474 29.8571 38.8091 30.665 39.0872L37.6015 41.4757C39.2451 42.0416 40.1127 43.8205 39.5468 45.4641L37.1583 52.4006C37.0332 52.8094 36.7317 53.1418 36.376 53.3153Z" fill="#E32652"/>
<path d="M363.579 308.977L348.599 301.671C347.832 301.296 347.506 300.349 347.88 299.582L355.186 284.602C355.561 283.834 356.508 283.508 357.275 283.882L372.255 291.188C373.023 291.563 373.349 292.51 372.975 293.278L365.669 308.258C365.294 309.025 364.347 309.351 363.579 308.977ZM351.374 299.547L363.545 305.483L369.481 293.312L357.31 287.376L351.374 299.547Z" fill="white"/>
<path d="M337.504 310.166C333.628 308.275 332.017 303.595 333.907 299.719C335.798 295.843 340.478 294.232 344.354 296.122L349.971 298.862C350.739 299.236 351.065 300.183 350.691 300.951L347.951 306.569C346.06 310.445 341.38 312.056 337.504 310.166ZM342.984 298.931C340.662 297.798 337.848 298.767 336.716 301.089C335.584 303.411 336.552 306.225 338.874 307.357C341.196 308.489 344.01 307.521 345.142 305.199L347.197 300.986L342.984 298.931Z" fill="white"/>
<path d="M355.907 286.691L350.289 283.951C346.413 282.06 344.802 277.38 346.692 273.504C348.583 269.628 353.263 268.017 357.139 269.907C361.015 271.798 362.627 276.478 360.736 280.354L357.996 285.971C357.622 286.739 356.675 287.065 355.907 286.691ZM355.769 272.716C353.447 271.583 350.634 272.552 349.501 274.874C348.369 277.196 349.337 280.01 351.659 281.142L355.872 283.197L357.927 278.984C359.06 276.662 358.091 273.848 355.769 272.716Z" fill="white"/>
<path d="M376.504 296.736L370.887 293.996C370.119 293.622 369.793 292.675 370.167 291.907L372.907 286.289C374.798 282.413 379.478 280.802 383.354 282.692C387.23 284.583 388.841 289.263 386.951 293.139C385.06 297.015 380.38 298.626 376.504 296.736ZM373.661 291.872L377.874 293.927C380.196 295.06 383.01 294.091 384.142 291.769C385.275 289.447 384.306 286.634 381.984 285.501C379.662 284.369 376.848 285.337 375.716 287.659L373.661 291.872Z" fill="white"/>
<path d="M363.719 322.951C359.843 321.06 358.232 316.38 360.122 312.504L362.862 306.887C363.236 306.119 364.184 305.793 364.951 306.167L370.569 308.907C374.445 310.798 376.056 315.478 374.166 319.354C372.275 323.23 367.595 324.841 363.719 322.951ZM364.986 309.661L362.931 313.874C361.798 316.196 362.767 319.01 365.089 320.142C367.411 321.275 370.225 320.306 371.357 317.984C372.489 315.662 371.521 312.848 369.199 311.716L364.986 309.661Z" fill="white"/>
</g>
<defs>
<clipPath id="clip0_1_3498">
<rect width="390" height="440" fill="white"/>
</clipPath>
</defs>
</svg>
