<svg width="67" height="67" viewBox="0 0 67 67" fill="none" xmlns="http://www.w3.org/2000/svg">
<path d="M48.8906 50.8141L37.6496 56.2895C27.4765 61.2448 21.01 59.0211 16.0482 48.8613L10.5656 37.6351C5.60383 27.4753 7.83042 21.0173 18.0035 16.062L29.2446 10.5866C39.4177 5.63137 45.8842 7.85503 50.846 18.0148L56.3286 29.2411C61.2903 39.4009 59.0637 45.8589 48.8906 50.8141ZM19.3742 18.8686C10.7373 23.0756 9.16338 27.6407 13.3759 36.2662L18.8585 47.4925C23.071 56.118 27.6421 57.6899 36.2789 53.483L47.52 48.0075C56.1568 43.8006 57.7308 39.2355 53.5183 30.6099L48.0357 19.3837C43.8232 10.7581 39.2521 9.18624 30.6152 13.3932L19.3742 18.8686Z" fill="#E32652"/>
<path d="M46.6284 43.8091C43.7806 45.1962 40.3523 44.0173 38.9634 41.1733L30.7394 24.3339C29.3505 21.4899 30.531 18.0661 33.3787 16.679C36.2264 15.2919 39.6548 16.4708 41.0437 19.3148L49.2676 36.1542C50.6566 38.9982 49.4761 42.422 46.6284 43.8091ZM34.7494 19.4855C33.4566 20.1152 32.9192 21.674 33.5497 22.9651L41.7736 39.8045C42.4041 41.0955 43.965 41.6322 45.2577 41.0026C46.5504 40.3729 47.0879 38.8141 46.4574 37.523L38.2334 20.6836C37.6029 19.3926 36.0421 18.8559 34.7494 19.4855Z" fill="#E32652"/>
<path d="M33.5147 50.197C30.667 51.5841 27.2387 50.4052 25.8497 47.5612L22.6515 41.0126C21.2626 38.1686 22.4431 34.7447 25.2908 33.3576C28.1385 31.9705 31.5669 33.1494 32.9558 35.9934L36.154 42.5421C37.5429 45.3861 36.3625 48.8099 33.5147 50.197ZM26.6615 36.1642C25.3687 36.7939 24.8313 38.3527 25.4618 39.6437L28.66 46.1924C29.2905 47.4834 30.8514 48.0201 32.1441 47.3905C33.4368 46.7608 33.9743 45.202 33.3438 43.9109L30.1456 37.3623C29.5151 36.0713 27.9542 35.5345 26.6615 36.1642Z" fill="#E32652"/>
</svg>
