<svg width="214" height="215" viewBox="0 0 214 215" fill="none" xmlns="http://www.w3.org/2000/svg">
<path d="M156.367 162.949L120.415 180.461C87.8791 196.309 67.1976 189.197 51.3286 156.703L33.7937 120.799C17.9247 88.305 25.0459 67.6506 57.5822 51.8024L93.534 34.2906C126.07 18.4424 146.752 25.5542 162.621 58.0479L180.156 93.9525C196.025 126.446 188.904 147.1 156.367 162.949ZM61.9659 60.7786C34.343 74.2335 29.309 88.834 42.7816 116.421L60.3165 152.325C73.7891 179.912 88.4088 184.939 116.032 171.484L151.983 153.973C179.606 140.518 184.64 125.917 171.168 98.3304L153.633 62.4258C140.16 34.8392 125.541 29.8118 97.9177 43.2667L61.9659 60.7786Z" fill="#E32652"/>
<path d="M149.131 140.545C140.023 144.981 129.059 141.211 124.616 132.115L98.3141 78.258C93.872 69.1622 97.6475 58.2118 106.755 53.7755C115.863 49.3392 126.828 53.1097 131.27 62.2055L157.572 116.062C162.014 125.158 158.239 136.109 149.131 140.545ZM111.139 62.7516C107.004 64.7655 105.286 69.751 107.302 73.8801L133.604 127.737C135.621 131.866 140.613 133.583 144.747 131.569C148.882 129.555 150.601 124.569 148.584 120.44L122.282 66.5835C120.265 62.4544 115.273 60.7378 111.139 62.7516Z" fill="#E32652"/>
<path d="M107.19 160.975C98.0825 165.411 87.1178 161.641 82.6756 152.545L72.447 131.601C68.0048 122.505 71.7803 111.555 80.888 107.118C89.9958 102.682 100.961 106.452 105.403 115.548L115.631 136.493C120.074 145.588 116.298 156.539 107.19 160.975ZM85.2718 116.094C81.1373 118.108 79.4184 123.094 81.4349 127.223L91.6636 148.167C93.6801 152.296 98.6722 154.013 102.807 151.999C106.941 149.985 108.66 145 106.643 140.871L96.4148 119.926C94.3983 115.797 89.4062 114.081 85.2718 116.094Z" fill="#E32652"/>
</svg>
