<svg width="214" height="214" viewBox="0 0 214 214" fill="none" xmlns="http://www.w3.org/2000/svg">
<path d="M75.555 171.386C40.0227 154.056 25.2277 111.088 42.558 75.5561C59.8883 40.0238 102.856 25.2289 138.388 42.5592C173.921 59.8894 188.715 102.857 171.385 138.389C154.055 173.922 111.087 188.717 75.555 171.386ZM134.004 51.5471C103.445 36.6425 66.4506 49.3809 51.546 79.9399C36.6413 110.499 49.3797 147.494 79.9387 162.398C110.498 177.303 147.493 164.565 162.397 134.006C177.302 103.447 164.563 66.4517 134.004 51.5471Z" fill="#E32652"/>
<path d="M117.721 141.366C116.942 140.986 116.251 140.426 115.765 139.596L102.597 119.451C99.3274 114.445 98.8637 106.727 101.465 101.394L113.447 76.827C114.645 74.3703 117.676 73.3266 120.133 74.5249C122.589 75.7231 123.633 78.754 122.435 81.2107L110.453 105.778C109.401 107.935 109.649 111.987 110.981 113.972L124.149 134.117C125.693 136.427 125.007 139.505 122.697 141.048C121.097 142.048 119.219 142.096 117.721 141.366Z" fill="#E32652"/>
</svg>
