<svg width="59" height="67" viewBox="0 0 59 67" fill="none" xmlns="http://www.w3.org/2000/svg">
<path d="M23.6111 53.5581C12.5072 48.1424 7.88379 34.715 13.2995 23.6112C18.7152 12.5073 32.1426 7.88391 43.2464 13.2996C54.3503 18.7153 58.9737 32.1427 53.558 43.2465C48.1423 54.3504 34.7149 58.9738 23.6111 53.5581ZM41.8765 16.1084C32.3268 11.4507 20.7659 15.4314 16.1082 24.9811C11.4505 34.5308 15.4313 46.0917 24.981 50.7494C34.5307 55.4071 46.0916 51.4263 50.7493 41.8766C55.4069 32.327 51.4262 20.766 41.8765 16.1084Z" fill="#E32652"/>
<path d="M36.7874 44.1767C36.544 44.058 36.3279 43.8831 36.1763 43.6237L32.0611 37.3284C31.0394 35.7639 30.8945 33.3521 31.7073 31.6856L35.4518 24.0084C35.8262 23.2406 36.7734 22.9145 37.5411 23.289C38.3088 23.6634 38.6349 24.6106 38.2605 25.3783L34.5161 33.0555C34.1873 33.7296 34.265 34.996 34.6811 35.6161L38.7962 41.9114C39.2786 42.6334 39.0644 43.5952 38.3424 44.0775C37.8424 44.3899 37.2555 44.405 36.7874 44.1767Z" fill="#E32652"/>
</svg>
