<svg width="63" height="67" viewBox="0 0 63 67" fill="none" xmlns="http://www.w3.org/2000/svg">
<path d="M36.5793 45.977L21.5994 38.6709C20.8316 38.2964 20.5055 37.3493 20.88 36.5815L28.1861 21.6016C28.5606 20.8339 29.5077 20.5078 30.2755 20.8822L45.2554 28.1884C46.0231 28.5628 46.3492 29.51 45.9748 30.2777L38.6686 45.2576C38.2941 46.0253 37.347 46.3515 36.5793 45.977ZM24.3736 36.5471L36.5448 42.4834L42.4811 30.3122L30.3099 24.3759L24.3736 36.5471Z" fill="white"/>
<path d="M10.5043 47.1657C6.62826 45.2752 5.01678 40.5951 6.90726 36.7191C8.79773 32.843 13.4778 31.2316 17.3539 33.122L22.9713 35.8619C23.739 36.2363 24.0652 37.1835 23.6907 37.9512L20.9509 43.5686C19.0604 47.4447 14.3804 49.0562 10.5043 47.1657ZM15.9839 35.9308C13.6621 34.7983 10.8484 35.7671 9.71599 38.089C8.58353 40.4109 9.55234 43.2245 11.8742 44.357C14.1961 45.4894 17.0097 44.5206 18.1422 42.1987L20.197 37.9856L15.9839 35.9308Z" fill="white"/>
<path d="M28.9069 23.6907L23.2895 20.9509C19.4134 19.0604 17.8019 14.3803 19.6924 10.5043C21.5829 6.6282 26.263 5.01672 30.139 6.9072C34.0151 8.79767 35.6265 13.4777 33.7361 17.3538L30.9962 22.9713C30.6218 23.739 29.6746 24.0651 28.9069 23.6907ZM28.7691 9.71593C26.4472 8.58347 23.6336 9.55228 22.5011 11.8742C21.3687 14.196 22.3375 17.0097 24.6594 18.1421L28.8725 20.197L30.9273 15.9839C32.0598 13.662 31.091 10.8484 28.7691 9.71593Z" fill="white"/>
<path d="M49.5043 33.736L43.8868 30.9962C43.1191 30.6217 42.793 29.6746 43.1674 28.9069L45.9073 23.2894C47.7977 19.4134 52.4778 17.8019 56.3539 19.6924C60.2299 21.5828 61.8414 26.2629 59.9509 30.139C58.0604 34.015 53.3804 35.6265 49.5043 33.736ZM46.6611 28.8724L50.8742 30.9273C53.1961 32.0597 56.0097 31.0909 57.1422 28.769C58.2746 26.4472 57.3058 23.6335 54.9839 22.5011C52.6621 21.3686 49.8484 22.3374 48.716 24.6593L46.6611 28.8724Z" fill="white"/>
<path d="M36.7192 59.9509C32.8431 58.0604 31.2316 53.3803 33.1221 49.5043L35.8619 43.8868C36.2364 43.1191 37.1835 42.7929 37.9512 43.1674L43.5687 45.9072C47.4448 47.7977 49.0562 52.4777 47.1658 56.3538C45.2753 60.2298 40.5952 61.8413 36.7192 59.9509ZM37.9857 46.6611L35.9308 50.8742C34.7984 53.196 35.7672 56.0097 38.0891 57.1421C40.4109 58.2746 43.2246 57.3058 44.357 54.9839C45.4895 52.662 44.5207 49.8484 42.1988 48.7159L37.9857 46.6611Z" fill="white"/>
</svg>
