<svg width="1440" height="593" viewBox="0 0 1440 593" fill="none" xmlns="http://www.w3.org/2000/svg">
<path d="M1257.42 520.481C1254.96 519.282 1253.92 516.252 1255.12 513.795L1261.25 501.212C1262.45 498.755 1265.48 497.711 1267.94 498.91C1270.4 500.108 1271.44 503.139 1270.24 505.595L1264.1 518.179C1262.91 520.635 1259.88 521.679 1257.42 520.481Z" fill="white"/>
<path d="M1281.94 557.658L1213.03 524.05L1218.14 513.564C1222.59 504.456 1233.55 500.681 1242.66 505.123L1278.61 522.658C1287.72 527.1 1291.49 538.065 1287.05 547.172L1281.94 557.658ZM1226.4 519.446L1277.33 544.287L1278.06 542.789C1280.08 538.654 1278.36 533.662 1274.23 531.646L1238.27 514.111C1234.14 512.094 1229.15 513.813 1227.13 517.948L1226.4 519.446V519.446Z" fill="white"/>
<path d="M1283.43 558.388L1211.53 523.319C1209.07 522.12 1208.03 519.089 1209.23 516.633C1210.43 514.176 1213.46 513.132 1215.91 514.331L1287.82 549.4C1290.27 550.599 1291.32 553.629 1290.12 556.086C1288.92 558.543 1285.89 559.586 1283.43 558.388Z" fill="white"/>
<path d="M1315.24 497.43C1313.99 496.816 1312.99 495.663 1312.59 494.206C1312.09 492.333 1312.7 490.329 1314.18 489.122C1318.49 485.442 1321.94 480.966 1324.48 475.753L1333.25 457.777C1334.27 455.679 1334.91 453.467 1335.24 450.959C1335.27 450.75 1335.32 450.481 1335.38 450.212C1335.64 449.226 1336.02 448.298 1336.43 447.459C1337.63 445.002 1340.66 443.959 1343.11 445.157L1346.71 446.91C1357.43 452.142 1361.8 465.396 1356.39 476.481C1351.92 485.649 1343.73 492.856 1334.02 496.202C1333.84 496.263 1333.33 496.387 1333.24 496.418C1328.28 497.63 1322.65 498.967 1316.53 497.835C1316.05 497.75 1315.66 497.635 1315.24 497.43ZM1344.21 457.042C1343.72 458.806 1343.03 460.543 1342.24 462.16L1333.47 480.136C1332.27 482.593 1330.95 484.842 1329.42 487.064C1329.93 486.939 1330.35 486.846 1330.85 486.722C1337.98 484.266 1344.07 478.929 1347.4 472.098C1350.03 466.705 1348.6 460.368 1344.21 457.042Z" fill="white"/>
<path d="M1238.36 459.637C1237.88 459.403 1237.49 459.138 1237.1 458.725C1232.95 454.77 1229.74 449.644 1227.77 443.939C1224.59 432.968 1225.24 422.973 1229.54 414.165C1234.86 403.26 1247.6 398.871 1258.51 404.189L1262.4 406.089C1263.9 406.82 1264.96 408.3 1265.19 409.967C1265.41 411.635 1264.74 413.311 1263.47 414.397C1261.46 416.087 1259.78 418.31 1258.52 420.886L1249.76 438.862C1247.24 444.015 1245.81 449.545 1245.57 455.362C1245.5 457.33 1244.23 459.012 1242.45 459.775C1241.08 460.296 1239.62 460.25 1238.36 459.637ZM1251.94 412.334C1246.62 410.926 1241.04 413.396 1238.53 418.549C1235.34 425.08 1234.91 432.658 1237.31 440.953C1237.41 441.369 1237.59 441.755 1237.77 442.141C1238.55 439.479 1239.57 436.935 1240.77 434.478L1249.54 416.502C1250.24 415.064 1251.06 413.685 1251.94 412.334Z" fill="white"/>
<path d="M1264.12 504.463C1238.53 491.984 1227.85 460.962 1240.33 435.376L1249.09 417.4C1256.75 401.701 1275.74 395.163 1291.44 402.82L1327.39 420.355C1343.09 428.012 1349.63 447 1341.97 462.699L1333.2 480.675C1320.72 506.26 1289.7 516.942 1264.12 504.463ZM1287.05 411.808C1276.33 406.577 1263.31 411.058 1258.08 421.784L1249.32 439.76C1239.23 460.432 1247.83 485.393 1268.5 495.475C1289.17 505.558 1314.13 496.963 1324.21 476.291L1332.98 458.315C1338.21 447.589 1333.73 434.574 1323.01 429.343L1287.05 411.808Z" fill="white"/>
<path d="M193.39 198.717C186.619 202.019 179.183 203.198 172.547 201.91L137.4 195.242C128.085 193.481 117.58 185.476 113.43 176.968L91.6867 132.387C87.1861 123.16 89.1641 110.03 96.2743 102.557L120.709 76.7691C125.56 71.6589 134.907 67.0998 141.921 66.4236L177.346 63.0162C187.612 62.0142 199.176 68.5387 203.676 77.7663L213.701 98.3187C214.899 100.775 213.855 103.806 211.398 105.005C208.942 106.203 205.911 105.159 204.713 102.702L194.688 82.15C192.029 76.6973 184.379 72.4178 178.261 72.9538L142.896 76.332C138.211 76.7628 131.2 80.1821 127.976 83.609L103.571 109.457C99.3529 113.888 98.0152 122.551 100.704 128.064L122.418 172.584C125.194 178.276 133.096 184.287 139.226 185.451L174.373 192.119C178.867 192.968 184.153 192.096 188.946 189.758C191.403 188.56 194.434 189.603 195.632 192.06C196.83 194.517 195.846 197.518 193.39 198.717Z" fill="white"/>
<path d="M211.512 175.042C195.813 182.699 176.826 176.161 169.169 160.462C161.512 144.763 168.05 125.775 183.749 118.118C199.448 110.461 218.436 116.999 226.092 132.698C233.749 148.397 227.211 167.385 211.512 175.042ZM188.162 127.166C177.436 132.397 172.955 145.412 178.186 156.138C183.417 166.864 196.432 171.345 207.158 166.114C217.884 160.883 222.365 147.868 217.134 137.142C211.903 126.416 198.887 121.935 188.162 127.166Z" fill="white"/>
<path d="M245.127 167.92C244.707 168.125 244.318 168.24 243.87 168.385C243.481 168.5 243.063 168.556 242.616 168.551C242.198 168.607 241.751 168.602 241.274 168.538C240.858 168.445 240.441 168.351 240.025 168.257C238.391 167.645 236.972 166.409 236.212 164.851C235.832 164.072 235.632 163.205 235.581 162.34C235.53 161.475 235.628 160.611 235.875 159.749C237.011 156.451 241.085 154.463 244.383 155.599C245.215 155.935 245.956 156.39 246.606 156.963C247.256 157.535 247.816 158.227 248.196 159.006C248.956 160.564 249.057 162.443 248.533 164.108C247.921 165.741 246.684 167.16 245.127 167.92Z" fill="white"/>
<path d="M199.389 540.716C163.857 558.046 120.889 543.252 103.559 507.719C86.2289 472.187 101.024 429.219 136.556 411.889C172.088 394.559 215.056 409.354 232.386 444.886C249.717 480.418 234.922 523.386 199.389 540.716ZM140.94 420.877C110.381 435.782 97.6425 472.777 112.547 503.336C127.452 533.895 164.447 546.633 195.006 531.728C225.565 516.824 238.303 479.829 223.398 449.27C208.494 418.711 171.499 405.972 140.94 420.877Z" fill="#E32652"/>
<path d="M178.493 543.491L172.502 546.414C170.045 547.612 167.014 546.568 165.816 544.112C164.617 541.655 165.57 538.743 167.998 537.484C142.926 509.956 126.034 475.322 119.777 438.617C117.291 439.755 114.409 438.713 113.211 436.256C112.013 433.8 113.057 430.769 115.513 429.571L121.505 426.648C122.943 425.947 124.672 425.994 126.066 426.723C127.49 427.512 128.46 428.893 128.653 430.505C133.9 469.854 152.078 507.124 179.884 535.544C181.035 536.689 181.526 538.304 181.272 539.911C180.959 541.399 179.932 542.79 178.493 543.491Z" fill="#E32652"/>
<path d="M214.445 525.956C213.966 526.19 213.457 526.364 212.89 526.418C210.173 526.779 207.598 524.845 207.297 522.099C202.05 482.75 183.872 445.48 156.066 417.06C154.148 415.103 154.149 411.913 156.106 409.994C158.123 408.046 161.253 408.077 163.172 410.034C192.514 439.93 211.686 479.237 217.15 520.705C217.516 522.975 216.302 525.05 214.445 525.956Z" fill="#E32652"/>
<path d="M183.17 507.46C166.453 515.614 148.655 521.402 130.288 524.5C131.397 526.926 130.384 529.868 127.927 531.066C125.471 532.264 122.44 531.221 121.242 528.764L118.319 522.772C117.618 521.334 117.665 519.605 118.394 518.211C119.183 516.788 120.564 515.817 122.176 515.625C161.525 510.377 198.855 492.17 227.215 464.394C228.36 463.242 229.975 462.751 231.582 463.005C233.19 463.26 234.521 464.316 235.222 465.755L238.145 471.747C239.343 474.203 238.299 477.234 235.843 478.432C233.386 479.631 230.473 478.678 229.215 476.25C215.406 488.845 199.888 499.307 183.17 507.46Z" fill="#E32652"/>
<path d="M215.324 436.519C214.845 436.753 214.336 436.927 213.769 436.981C174.42 442.228 137.09 460.435 108.73 488.212C106.713 490.159 103.583 490.129 101.664 488.172C99.7762 486.126 99.8071 482.995 101.764 481.077C131.66 451.735 170.968 432.563 212.436 427.098C215.152 426.738 217.727 428.671 218.028 431.417C218.395 433.538 217.182 435.613 215.324 436.519Z" fill="#E32652"/>
<path d="M1218.57 174.513C1217.38 173.928 1216.53 173.221 1215.96 172.571C1214 170.503 1211.36 165.579 1215.89 156.292L1234.74 117.644L1220.72 110.805C1212.69 106.889 1211.65 101.711 1211.72 98.9974C1211.81 96.2237 1213.16 91.1715 1221.39 87.6914L1291.88 58.2836C1301.38 54.3139 1306.12 57.2189 1308.08 59.2867C1310.04 61.3545 1312.68 66.2778 1308.15 75.5654L1289.3 114.214L1303.32 121.052C1311.35 124.968 1312.38 130.146 1312.32 132.86C1312.23 135.634 1310.88 140.686 1302.65 144.166L1232.16 173.574C1225.54 176.352 1221.21 175.798 1218.57 174.513ZM1300.66 66.128C1300.36 66.28 1298.81 66.2655 1295.73 67.578L1225.23 96.9857C1222.62 98.0849 1221.8 99.1664 1221.68 99.406C1221.77 99.5244 1222.56 100.65 1225.07 101.877L1243.59 110.908C1246.04 112.106 1247.09 115.137 1245.89 117.593L1224.85 160.735C1223.39 163.731 1223.28 165.313 1223.35 165.789C1223.64 165.637 1225.2 165.652 1228.28 164.339L1298.78 134.931C1301.39 133.832 1302.21 132.751 1302.33 132.511C1302.24 132.393 1301.45 131.267 1298.94 130.04L1280.42 121.01C1277.96 119.811 1276.92 116.78 1278.12 114.324L1299.16 71.1816C1300.68 68.2149 1300.7 66.6643 1300.66 66.128Z" fill="#E32652"/>
</svg>
