<svg width="63" height="63" viewBox="0 0 63 63" fill="none" xmlns="http://www.w3.org/2000/svg">
<g id="vuesax/outline/cup">
<g id="cup">
<path id="Vector" d="M27.2416 47.3566C26.4739 46.9821 26.1477 46.035 26.5222 45.2673L28.44 41.335C28.8145 40.5673 29.7616 40.2412 30.5294 40.6156C31.2971 40.9901 31.6232 41.9372 31.2488 42.7049L29.3309 46.6372C28.9565 47.4049 28.0093 47.731 27.2416 47.3566Z" fill="white"/>
<path id="Vector_2" d="M34.9043 58.9747L13.3707 48.4721L14.969 45.1952C16.3571 42.3491 19.7836 41.1692 22.6298 42.5574L33.8647 48.037C36.7109 49.4252 37.8907 52.8517 36.5026 55.6979L34.9043 58.9747ZM17.5494 47.0333L33.4655 54.7961L33.6938 54.328C34.324 53.036 33.7868 51.4759 32.4948 50.8458L21.2599 45.3661C19.9679 44.736 18.4079 45.2731 17.7777 46.5651L17.5494 47.0333Z" fill="white"/>
<path id="Vector_3" d="M35.3715 59.202L12.9016 48.2427C12.1339 47.8683 11.8078 46.9211 12.1822 46.1534C12.5567 45.3857 13.5038 45.0595 14.2716 45.434L36.7414 56.3933C37.5091 56.7677 37.8353 57.7149 37.4608 58.4826C37.0864 59.2503 36.1392 59.5764 35.3715 59.202Z" fill="white"/>
<path id="Vector_4" d="M45.3154 40.154C44.9222 39.9623 44.6112 39.602 44.4856 39.1466C44.3307 38.5612 44.5202 37.935 44.9823 37.5578C46.3313 36.4077 47.4077 35.0088 48.2022 33.3798L50.942 27.7623C51.2617 27.1069 51.4599 26.4155 51.5639 25.6318C51.5726 25.5665 51.5904 25.4825 51.6082 25.3984C51.689 25.0902 51.8073 24.8002 51.9352 24.538C52.3096 23.7703 53.2568 23.4442 54.0245 23.8186L55.148 24.3666C58.4997 26.0013 59.8637 30.1434 58.1741 33.6075C56.7768 36.4724 54.2181 38.7245 51.1816 39.7701C51.1259 39.7893 50.9679 39.8281 50.94 39.8377C49.3877 40.2164 47.6309 40.6343 45.7173 40.2805C45.568 40.254 45.4465 40.218 45.3154 40.154ZM54.3686 27.5329C54.2156 28.0841 53.9974 28.6267 53.7508 29.1322L51.011 34.7497C50.6365 35.5174 50.2242 36.2203 49.7465 36.9145C49.9045 36.8756 50.0347 36.8464 50.1927 36.8076C52.4213 36.0402 54.3242 34.3723 55.3654 32.2376C56.1873 30.5524 55.7392 28.5722 54.3686 27.5329Z" fill="white"/>
<path id="Vector_5" d="M21.2902 28.3422C21.1404 28.2692 21.0185 28.1865 20.8961 28.0573C19.5981 26.8216 18.5946 25.2195 17.9807 23.4367C16.9872 20.0083 17.1894 16.885 18.5319 14.1325C20.194 10.7245 24.1777 9.35286 27.5856 11.015L28.8027 11.6086C29.2708 11.837 29.6015 12.2996 29.6719 12.8206C29.7422 13.3417 29.5331 13.8656 29.1358 14.2049C28.5074 14.7329 27.9832 15.4275 27.5905 16.2327L24.8506 21.8502C24.0652 23.4605 23.6164 25.1887 23.5411 27.0063C23.5193 27.6215 23.1238 28.1471 22.5671 28.3856C22.1401 28.5482 21.6834 28.534 21.2902 28.3422ZM25.5329 13.5603C23.8701 13.1201 22.126 13.892 21.3406 15.5024C20.3451 17.5434 20.2101 19.9113 20.9624 22.5035C20.9916 22.6336 21.0487 22.7542 21.1058 22.8748C21.3492 22.0431 21.6675 21.248 22.0419 20.4803L24.7817 14.8628C25.0009 14.4134 25.2575 13.9823 25.5329 13.5603Z" fill="white"/>
<path id="Vector_6" d="M29.3365 42.3514C21.341 38.4518 18.0029 28.7573 21.9026 20.7618L24.6424 15.1443C27.0352 10.2384 32.9689 8.19527 37.8748 10.588L49.1097 16.0677C54.0156 18.4605 56.0588 24.3941 53.666 29.3001L50.9262 34.9175C47.0265 42.913 37.332 46.2511 29.3365 42.3514ZM36.5049 13.3968C33.1531 11.762 29.0859 13.1625 27.4512 16.5142L24.7113 22.1317C21.5605 28.5918 24.2463 36.3919 30.7064 39.5427C37.1665 42.6935 44.9666 40.0077 48.1174 33.5476L50.8572 27.9301C52.492 24.5784 51.0916 20.5112 47.7398 18.8764L36.5049 13.3968Z" fill="white"/>
</g>
</g>
</svg>
