<svg width="214" height="214" viewBox="0 0 214 214" fill="none" xmlns="http://www.w3.org/2000/svg">
<path d="M86.4184 151.481C83.9617 150.282 82.918 147.252 84.1163 144.795L90.2535 132.212C91.4517 129.755 94.4826 128.711 96.9393 129.91C99.396 131.108 100.44 134.139 99.2414 136.595L93.1042 149.179C91.906 151.635 88.8751 152.679 86.4184 151.481Z" fill="white"/>
<path d="M110.936 188.658L42.0286 155.05L47.1429 144.564C51.585 135.456 62.5498 131.681 71.6576 136.123L107.609 153.658C116.717 158.1 120.493 169.065 116.05 178.172L110.936 188.658ZM55.4002 150.446L106.332 175.287L107.062 173.789C109.079 169.654 107.36 164.662 103.226 162.646L67.2739 145.111C63.1394 143.094 58.1473 144.813 56.1308 148.948L55.4002 150.446Z" fill="white"/>
<path d="M112.434 189.388L40.5302 154.318C38.0735 153.12 37.0299 150.089 38.2281 147.633C39.4263 145.176 42.4572 144.132 44.9139 145.331L116.817 180.4C119.274 181.598 120.318 184.629 119.12 187.086C117.921 189.543 114.89 190.586 112.434 189.388Z" fill="white"/>
<path d="M144.244 128.43C142.985 127.817 141.99 126.664 141.588 125.207C141.093 123.333 141.699 121.33 143.178 120.122C147.495 116.442 150.939 111.966 153.482 106.753L162.249 88.7769C163.272 86.6797 163.906 84.4671 164.239 81.9593C164.267 81.7503 164.324 81.4814 164.381 81.2125C164.639 80.226 165.018 79.298 165.427 78.4591C166.625 76.0024 169.656 74.9588 172.113 76.157L175.708 77.9105C186.434 83.1417 190.798 96.3965 185.391 107.482C180.92 116.649 172.732 123.856 163.015 127.202C162.837 127.263 162.332 127.387 162.242 127.418C157.275 128.63 151.653 129.967 145.53 128.835C145.052 128.75 144.663 128.635 144.244 128.43ZM173.214 88.0426C172.724 89.8066 172.026 91.5428 171.237 93.1606L162.469 111.136C161.271 113.593 159.952 115.842 158.423 118.064C158.929 117.94 159.345 117.846 159.851 117.722C166.983 115.266 173.072 109.929 176.404 103.098C179.034 97.7052 177.6 91.3686 173.214 88.0426Z" fill="white"/>
<path d="M67.3638 90.6366C66.8844 90.4028 66.4942 90.1383 66.1025 89.7248C61.949 85.7704 58.7379 80.644 56.7735 74.9387C53.5943 63.9681 54.2411 53.9735 58.5371 45.1653C63.856 34.2599 76.6037 29.8705 87.509 35.1894L91.4038 37.0891C92.9018 37.8197 93.9599 39.3 94.1851 40.9675C94.4102 42.6349 93.741 44.3112 92.4697 45.3971C90.4588 47.0866 88.7813 49.3095 87.5246 51.8861L78.7572 69.862C76.2439 75.0151 74.8076 80.5451 74.5668 86.3615C74.4968 88.3301 73.2313 90.0122 71.4499 90.7752C70.0835 91.2955 68.6221 91.2503 67.3638 90.6366ZM80.9405 43.3343C75.6194 41.9258 70.0384 44.3959 67.5251 49.549C64.3396 56.0802 63.9074 63.6577 66.3149 71.9525C66.4084 72.369 66.5911 72.7548 66.7738 73.1406C67.5526 70.4793 68.571 67.935 69.7692 65.4783L78.5367 47.5024C79.2381 46.0643 80.0593 44.6847 80.9405 43.3343Z" fill="white"/>
<path d="M93.1159 135.463C67.5302 122.984 56.8484 91.9618 69.3274 66.3762L78.0948 48.4003C85.7517 32.7014 104.739 26.1633 120.438 33.8202L156.39 51.3551C172.089 59.012 178.627 77.9997 170.97 93.6986L162.203 111.675C149.724 137.26 118.702 147.942 93.1159 135.463ZM116.055 42.8082C105.329 37.5769 92.314 42.0584 87.0827 52.784L78.3153 70.7599C68.2328 91.4321 76.8274 116.393 97.4996 126.475C118.172 136.558 143.132 127.963 153.215 107.291L161.982 89.3149C167.213 78.5893 162.732 65.5742 152.006 60.343L116.055 42.8082Z" fill="white"/>
</svg>
