<svg width="67" height="67" viewBox="0 0 67 67" fill="none" xmlns="http://www.w3.org/2000/svg">
<path d="M37.2093 29.295L29.5654 25.5717C25.35 23.5185 23.5938 18.4244 25.6498 14.2146C27.7057 10.0047 32.8064 8.25071 37.0217 10.304L44.6657 14.0273L37.2093 29.295ZM35.6602 13.0918C32.9999 11.796 29.7667 12.9078 28.4692 15.5647C27.1716 18.2216 28.2848 21.4506 30.9452 22.7464L35.7789 25.1009L40.5031 15.4276L35.6694 13.0731L35.6602 13.0918Z" fill="#E32652"/>
<path d="M31.1234 41.7562L23.4795 38.0329C19.2641 35.9796 17.5078 30.8857 19.5638 26.6758C21.6198 22.466 26.7204 20.712 30.9358 22.7652L38.5797 26.4885L31.1234 41.7562ZM29.5652 25.5718C26.9048 24.276 23.6716 25.3878 22.3741 28.0447C21.0765 30.7016 22.1898 33.9305 24.8501 35.2264L29.6838 37.5808L34.408 27.9075L29.5743 25.5531L29.5652 25.5718Z" fill="#E32652"/>
<path d="M17.3847 50.5126C13.1693 48.4593 11.4131 43.3654 13.4691 39.1555C15.5251 34.9457 20.6257 33.1916 24.8411 35.2449L32.485 38.9682L28.7568 46.6021C26.7008 50.8119 21.6001 52.5659 17.3847 50.5126ZM23.4796 38.0327C20.8192 36.7368 17.586 37.8487 16.2885 40.5056C14.9909 43.1625 16.1041 46.3915 18.7645 47.6873C21.4249 48.9832 24.6582 47.8714 25.9557 45.2145L28.3133 40.3871L23.4796 38.0327Z" fill="#E32652"/>
<path d="M42.0437 31.6497L34.3997 27.9264L41.8652 12.6399L49.5092 16.3632C53.7246 18.4165 55.4808 23.5104 53.4248 27.7203C51.3876 31.9393 46.259 33.703 42.0437 31.6497ZM38.5806 26.4887L43.4143 28.8431C46.0747 30.1389 49.3079 29.027 50.6054 26.3702C51.903 23.7133 50.7897 20.4843 48.1294 19.1885L43.2957 16.834L38.5806 26.4887Z" fill="#E32652"/>
<path d="M35.9571 44.1108C31.7417 42.0575 29.9854 36.9635 32.0414 32.7537C34.0973 28.5438 39.1981 26.7898 43.4135 28.8431C47.6289 30.8964 49.3851 35.9904 47.3291 40.2002C45.2731 44.4101 40.1725 46.1641 35.9571 44.1108ZM42.0428 31.6497C39.3824 30.3538 36.1492 31.4656 34.8516 34.1225C33.5541 36.7794 34.6674 40.0084 37.3278 41.3042C39.9882 42.6001 43.2213 41.4882 44.5189 38.8314C45.8164 36.1745 44.7219 32.9547 42.0428 31.6497Z" fill="#E32652"/>
</svg>
