<svg width="214" height="215" viewBox="0 0 214 215" fill="none" xmlns="http://www.w3.org/2000/svg">
<path d="M119.008 94.5906L94.5605 82.6825C81.0786 76.1156 75.4617 59.8236 82.0373 46.3594C88.6128 32.8952 104.926 27.2853 118.408 33.8523L142.855 45.7604L119.008 94.5906ZM114.053 42.7685C105.545 38.624 95.2044 42.18 91.0545 50.6774C86.9046 59.1748 90.4649 69.502 98.9734 73.6465L114.433 81.1766L129.542 50.2387L114.083 42.7086L114.053 42.7685Z" fill="#E32652"/>
<path d="M99.543 134.445L75.0957 122.537C61.6138 115.97 55.9969 99.6781 62.5724 86.2139C69.148 72.7496 85.4611 67.1398 98.943 73.7067L123.39 85.6148L99.543 134.445ZM94.5593 82.6829C86.0507 78.5384 75.7103 82.0944 71.5604 90.5918C67.4105 99.0892 70.9708 109.416 79.4794 113.561L94.9388 121.091L110.048 90.1531L94.5886 82.623L94.5593 82.6829Z" fill="#E32652"/>
<path d="M55.6034 162.45C42.1215 155.883 36.5046 139.591 43.0802 126.127C49.6557 112.663 65.9689 107.053 79.4508 113.62L103.898 125.528L91.9744 149.943C85.3988 163.407 69.0854 169.017 55.6034 162.45ZM75.0964 122.536C66.5878 118.392 56.2473 121.948 52.0974 130.445C47.9474 138.943 51.5078 149.27 60.0164 153.414C68.525 157.559 78.8658 154.003 83.0157 145.505L90.5557 130.066L75.0964 122.536Z" fill="#E32652"/>
<path d="M134.469 102.121L110.022 90.2134L133.898 41.3232L158.346 53.2313C171.828 59.7983 177.445 76.0901 170.869 89.5543C164.353 103.048 147.951 108.688 134.469 102.121ZM123.393 85.6152L138.853 93.1453C147.361 97.2898 157.702 93.7337 161.852 85.2362C166.002 76.7388 162.441 66.4119 153.933 62.2674L138.473 54.7372L123.393 85.6152Z" fill="#E32652"/>
<path d="M115.002 141.975C101.52 135.409 95.9031 119.117 102.479 105.652C109.054 92.1881 125.368 86.5785 138.85 93.1454C152.332 99.7123 157.948 116.004 151.373 129.468C144.797 142.933 128.484 148.542 115.002 141.975ZM134.466 102.122C125.957 97.9771 115.617 101.533 111.467 110.03C107.317 118.528 110.877 128.855 119.386 132.999C127.895 137.144 138.235 133.588 142.385 125.09C146.535 116.593 143.034 106.295 134.466 102.122Z" fill="#E32652"/>
</svg>
