<svg width="215" height="214" viewBox="0 0 215 214" fill="none" xmlns="http://www.w3.org/2000/svg">
<path d="M63.574 165.513C62.3756 164.928 61.5338 164.221 60.9608 163.571C59.0024 161.503 56.3599 156.579 60.8898 147.292L79.7397 108.644L65.7185 101.805C57.6893 97.889 56.6543 92.7113 56.717 89.9974C56.8089 87.2237 58.1604 82.1715 66.385 78.6914L136.877 49.2836C146.379 45.3139 151.119 48.2189 153.077 50.2867C155.036 52.3545 157.678 57.2778 153.148 66.5654L134.298 105.214L148.32 112.052C156.349 115.968 157.384 121.146 157.321 123.86C157.229 126.634 155.878 131.686 147.653 135.166L77.1607 164.574C70.5392 167.352 66.2104 166.798 63.574 165.513ZM145.661 57.128C145.364 57.28 143.814 57.2655 140.726 58.578L70.2335 87.9857C67.6205 89.0849 66.7964 90.1664 66.6795 90.4061C66.7701 90.5244 67.5564 91.6497 70.073 92.8771L88.5882 101.908C91.0449 103.106 92.0885 106.137 90.8903 108.593L69.8485 151.735C68.3872 154.731 68.2836 156.313 68.3479 156.789C68.6446 156.637 70.1951 156.652 73.283 155.339L143.775 125.931C146.388 124.832 147.213 123.751 147.329 123.511C147.239 123.393 146.453 122.267 143.936 121.04L125.421 112.01C122.964 110.811 121.92 107.78 123.119 105.324L144.16 62.1816C145.682 59.2149 145.696 57.6643 145.661 57.128Z" fill="#E32652"/>
</svg>
