<svg width="58" height="67" viewBox="0 0 58 67" fill="none" xmlns="http://www.w3.org/2000/svg">
<g id="vuesax/outline/flash">
<g id="flash">
<path id="Vector" d="M20.1287 51.7227C19.7542 51.5401 19.4911 51.3191 19.3121 51.1158C18.7001 50.4697 17.8743 48.9311 19.2899 46.0288L25.1805 33.9512L20.7989 31.8142C18.2897 30.5904 17.9663 28.9723 17.9859 28.1243C18.0146 27.2575 18.437 25.6786 21.0072 24.5911L43.036 15.4012C46.0054 14.1607 47.4865 15.0685 48.0985 15.7147C48.7105 16.3608 49.5363 17.8994 48.1207 20.8017L42.2301 32.8793L46.6117 35.0163C49.1208 36.2401 49.4443 37.8582 49.4247 38.7062C49.396 39.573 48.9736 41.1519 46.4034 42.2394L24.3745 51.4293C22.3053 52.2976 20.9526 52.1246 20.1287 51.7227ZM45.7809 17.8526C45.6882 17.9001 45.2037 17.8955 44.2387 18.3057L22.2098 27.4956C21.3933 27.8391 21.1357 28.1771 21.0992 28.2519C21.1275 28.2889 21.3732 28.6406 22.1597 29.0242L27.9456 31.8462C28.7134 32.2206 29.0395 33.1678 28.6651 33.9355L22.0895 47.4174C21.6329 48.3536 21.6005 48.8478 21.6206 48.9967C21.7133 48.9492 22.1978 48.9537 23.1628 48.5435L45.1917 39.3536C46.0082 39.0101 46.2658 38.6722 46.3023 38.5973C46.274 38.5603 46.0282 38.2086 45.2418 37.8251L39.4558 35.0031C38.6881 34.6286 38.362 33.6815 38.7364 32.9137L45.312 19.4318C45.7873 18.5047 45.7919 18.0202 45.7809 17.8526Z" fill="#E32652"/>
</g>
</g>
</svg>
