<svg width="214" height="215" viewBox="0 0 214 215" fill="none" xmlns="http://www.w3.org/2000/svg">
<path d="M138.389 171.716C102.857 189.046 59.8894 174.252 42.5592 138.719C25.2289 103.187 40.0238 60.2193 75.5561 42.8891C111.088 25.5588 154.056 40.3537 171.386 75.886C188.717 111.418 173.922 154.386 138.389 171.716ZM79.9399 51.877C49.3809 66.7816 36.6425 103.777 51.5471 134.336C66.4517 164.895 103.447 177.633 134.006 162.728C164.565 147.824 177.303 110.829 162.398 80.2698C147.494 49.7108 110.499 36.9724 79.9399 51.877Z" fill="#E32652"/>
<path d="M117.493 174.491L111.502 177.414C109.045 178.612 106.014 177.568 104.816 175.112C103.617 172.655 104.57 169.743 106.998 168.484C81.9261 140.956 65.0342 106.322 58.7771 69.617C56.2912 70.7553 53.4094 69.7132 52.2111 67.2565C51.0129 64.7998 52.0566 61.7689 54.5133 60.5706L60.5052 57.6482C61.9433 56.9468 63.6721 56.9936 65.0663 57.723C66.4897 58.5122 67.46 59.8933 67.6528 61.5053C72.8999 100.854 91.0777 138.124 118.884 166.544C120.035 167.689 120.526 169.304 120.272 170.911C119.959 172.399 118.932 173.79 117.493 174.491Z" fill="#E32652"/>
<path d="M153.445 156.956C152.966 157.19 152.457 157.364 151.89 157.418C149.173 157.779 146.598 155.845 146.297 153.099C141.05 113.75 122.872 76.4802 95.0664 48.0599C93.1477 46.103 93.1493 42.9127 95.1063 40.994C97.1231 39.046 100.253 39.0769 102.172 41.0339C131.514 70.9302 150.686 110.237 156.15 151.705C156.516 153.975 155.302 156.05 153.445 156.956Z" fill="#E32652"/>
<path d="M122.17 138.46C105.453 146.614 87.6552 152.402 69.288 155.5C70.3971 157.926 69.3841 160.868 66.9274 162.066C64.4707 163.264 61.4398 162.221 60.2416 159.764L57.3191 153.772C56.6177 152.334 56.6646 150.605 57.3939 149.211C58.1832 147.788 59.5643 146.817 61.1762 146.625C100.525 141.377 137.855 123.17 166.215 95.3935C167.36 94.242 168.975 93.7511 170.582 94.0054C172.19 94.2598 173.521 95.3165 174.222 96.7546L177.145 102.747C178.343 105.203 177.299 108.234 174.843 109.432C172.386 110.631 169.473 109.678 168.215 107.25C154.406 119.845 138.888 130.307 122.17 138.46Z" fill="#E32652"/>
<path d="M154.324 67.5188C153.845 67.7526 153.336 67.9265 152.769 67.9806C113.42 73.2277 76.0905 91.4347 47.7302 119.212C45.7133 121.159 42.583 121.129 40.6642 119.172C38.7762 117.126 38.8071 113.995 40.764 112.077C70.6604 82.7346 109.968 63.5631 151.436 58.0984C154.152 57.7376 156.727 59.6712 157.028 62.4172C157.395 64.5377 156.182 66.6129 154.324 67.5188Z" fill="#E32652"/>
</svg>
