<svg width="62" height="63" viewBox="0 0 62 63" fill="none" xmlns="http://www.w3.org/2000/svg">
<g id="vuesax/outline/global">
<g id="global">
<path id="Vector" d="M38.249 54.1088C27.1451 59.5245 13.7178 54.9011 8.30206 43.7972C2.88635 32.6934 7.50977 19.266 18.6136 13.8503C29.7175 8.43457 43.1448 13.058 48.5605 24.1618C53.9763 35.2657 49.3528 48.6931 38.249 54.1088ZM19.9835 16.659C10.4338 21.3167 6.4531 32.8776 11.1108 42.4273C15.7685 51.977 27.3294 55.9577 36.8791 51.3C46.4288 46.6423 50.4095 35.0814 45.7518 25.5317C41.0941 15.9821 29.5332 12.0013 19.9835 16.659Z" fill="#E32652"/>
<path id="Vector_2" d="M31.7166 54.9763L29.8441 55.8896C29.0764 56.264 28.1292 55.9379 27.7548 55.1702C27.3803 54.4025 27.6782 53.4923 28.4367 53.0991C20.6018 44.4964 15.3231 33.6735 13.3677 22.2031C12.5909 22.5588 11.6903 22.2331 11.3159 21.4654C10.9414 20.6977 11.2676 19.7505 12.0353 19.3761L13.9078 18.4628C14.3572 18.2436 14.8974 18.2583 15.3331 18.4862C15.7779 18.7328 16.0811 19.1644 16.1414 19.6681C17.7811 31.9647 23.4616 43.6115 32.151 52.4929C32.5109 52.8505 32.6643 53.3551 32.5848 53.8575C32.4871 54.3224 32.166 54.7571 31.7166 54.9763Z" fill="#E32652"/>
<path id="Vector_3" d="M42.9519 49.4956C42.8021 49.5687 42.6432 49.623 42.466 49.6399C41.617 49.7526 40.8123 49.1484 40.7183 48.2903C39.0786 35.9938 33.398 24.3469 24.7086 15.4656C24.109 14.854 24.1095 13.8571 24.7211 13.2575C25.3513 12.6487 26.3296 12.6584 26.9292 13.2699C36.0985 22.6125 42.0896 34.896 43.7973 47.8548C43.9115 48.564 43.5324 49.2125 42.9519 49.4956Z" fill="#E32652"/>
<path id="Vector_4" d="M33.1782 43.7156C27.9539 46.2636 22.3922 48.0723 16.6525 49.0406C16.9991 49.7987 16.6825 50.718 15.9148 51.0924C15.1471 51.4669 14.1999 51.1407 13.8255 50.373L12.9122 48.5005C12.693 48.0511 12.7077 47.5109 12.9356 47.0752C13.1822 46.6304 13.6138 46.3272 14.1176 46.2669C26.4141 44.6272 38.0797 38.9375 46.9423 30.2573C47.2999 29.8974 47.8045 29.744 48.3069 29.8235C48.8092 29.903 49.2253 30.2332 49.4445 30.6826L50.3577 32.5551C50.7322 33.3228 50.406 34.2699 49.6383 34.6444C48.8706 35.0188 47.9604 34.721 47.5673 33.9624C43.2518 37.8984 38.4024 41.1676 33.1782 43.7156Z" fill="#E32652"/>
<path id="Vector_5" d="M43.2266 21.5468C43.0768 21.6198 42.9178 21.6742 42.7406 21.6911C30.4441 23.3308 18.7785 29.0205 9.91592 37.7008C9.28565 38.3095 8.30742 38.2998 7.70782 37.6883C7.11781 37.0489 7.12746 36.0707 7.739 35.4711C17.0816 26.3017 29.3651 20.3106 42.3238 18.6029C43.1728 18.4901 43.9775 19.0944 44.0715 19.9525C44.1861 20.6152 43.807 21.2637 43.2266 21.5468Z" fill="#E32652"/>
</g>
</g>
</svg>
