<svg width="214" height="214" viewBox="0 0 214 214" fill="none" xmlns="http://www.w3.org/2000/svg">
<path d="M112.383 118.058C111.604 118.438 110.737 118.638 109.873 118.54C107.103 118.334 105.039 115.928 105.215 113.246L105.983 101.894L100.949 104.349C97.9534 105.81 94.8537 105.69 92.4542 104.116C90.0254 102.482 88.8009 99.6674 89.013 96.3003L89.9886 82.0282C90.1948 79.2574 92.6004 77.194 95.2821 77.3695C98.053 77.5758 100.116 79.9814 99.9408 82.6631L99.2021 94.0752L104.235 91.6203C107.231 90.1591 110.331 90.2791 112.731 91.8532C115.159 93.4872 116.384 96.3019 116.172 99.669L115.196 113.941C115.059 115.788 113.941 117.298 112.383 118.058Z" fill="white"/>
<path d="M146.214 145.318L113.199 161.421C110.562 162.707 107.06 164.044 103.733 162.848C100.494 161.683 99.21 158.898 98.364 157.011L95.763 151.678C75.7535 148.976 57.2732 136.331 49.1487 119.674C41.4626 103.915 41.3439 85.7259 48.8053 69.8481C56.2667 53.9703 70.5732 42.3938 88.0271 38.1831C104.614 34.1725 122.437 37.8665 135.724 48.0752C161.498 67.9183 162.798 102.368 149.36 125.611L151.552 130.105C152.46 131.814 154.068 134.96 152.839 138.675C151.858 141.379 149.69 143.623 146.214 145.318ZM107.467 153.016C107.767 152.87 108.216 152.725 108.755 152.462L141.831 136.33C142.43 136.038 142.82 135.774 143.03 135.597C142.943 135.417 142.826 135.177 142.738 134.998L139.056 127.448C138.296 125.89 138.404 123.983 139.343 122.561C151.848 103.185 151.639 72.9494 129.475 55.9446C118.555 47.5481 103.886 44.5411 90.2274 47.865C75.7621 51.3599 63.8905 60.9329 57.708 74.1101C51.5254 87.2873 51.6458 102.286 58.0168 115.348C66.1413 132.006 84.6598 140.775 99.4054 142.114C101.193 142.28 102.673 143.338 103.433 144.896L107.378 152.985C107.438 152.956 107.438 152.956 107.467 153.016Z" fill="white"/>
<path d="M159.357 161.161C158.937 161.365 158.489 161.51 158.011 161.595C143.256 164.192 129.655 170.826 118.524 180.854C116.449 182.682 113.32 182.502 111.432 180.456C109.544 178.41 109.783 175.252 111.83 173.364C124.314 162.157 139.713 154.646 156.23 151.708C158.948 151.198 161.554 153.043 162.064 155.761C162.518 158.061 161.334 160.196 159.357 161.161Z" fill="white"/>
</svg>
