<svg width="61" height="67" viewBox="0 0 61 67" fill="none" xmlns="http://www.w3.org/2000/svg">
<path d="M29.1186 36.8933C28.8752 37.0121 28.6044 37.0746 28.3345 37.044C27.4686 36.9796 26.8238 36.2278 26.8786 35.3898L27.1186 31.8422L25.5457 32.6094C24.6095 33.066 23.6408 33.0285 22.891 32.5366C22.132 32.026 21.7493 31.1464 21.8156 30.0942L22.1205 25.6341C22.1849 24.7682 22.9367 24.1234 23.7747 24.1783C24.6406 24.2427 25.2854 24.9945 25.2305 25.8325L24.9997 29.3988L26.5726 28.6316C27.5088 28.175 28.4775 28.2125 29.2273 28.7044C29.9863 29.215 30.369 30.0947 30.3027 31.1469L29.9978 35.6069C29.9548 36.1842 29.6055 36.6559 29.1186 36.8933Z" fill="white"/>
<path d="M39.691 45.4122L29.3736 50.4443C28.5497 50.8462 27.4554 51.264 26.4155 50.8903C25.4035 50.5263 25.0022 49.6558 24.7378 49.0662L23.925 47.3997C17.672 46.5554 11.8969 42.6037 9.358 37.3982C6.95609 32.4736 6.91898 26.7896 9.25068 21.8278C11.5824 16.866 16.0531 13.2483 21.5075 11.9324C26.691 10.6791 32.2607 11.8335 36.4128 15.0237C44.4671 21.2247 44.8734 31.9903 40.6741 39.2538L41.3591 40.6581C41.6427 41.192 42.1454 42.1753 41.7613 43.3362C41.4548 44.181 40.777 44.8825 39.691 45.4122ZM27.5826 47.8178C27.6762 47.7721 27.8164 47.7269 27.9849 47.6447L38.3211 42.6034C38.5083 42.5121 38.6302 42.4295 38.696 42.3742C38.6686 42.318 38.6321 42.2431 38.6047 42.187L37.454 39.8276C37.2165 39.3408 37.2503 38.7448 37.5436 38.3005C41.4514 32.2454 41.3862 22.7969 34.4598 17.4829C31.0476 14.859 26.4634 13.9193 22.1951 14.9581C17.6747 16.0502 13.9648 19.0418 12.0328 23.1597C10.1007 27.2775 10.1383 31.9645 12.1293 36.0466C14.6682 41.2521 20.4552 43.9926 25.0632 44.4107C25.6217 44.4628 26.0843 44.7935 26.3218 45.2803L27.5547 47.8082C27.5734 47.7991 27.5734 47.7991 27.5826 47.8178Z" fill="white"/>
<path d="M43.798 50.3631C43.667 50.427 43.5268 50.4722 43.3774 50.4987C38.7666 51.3104 34.5161 53.3835 31.0377 56.5172C30.3892 57.0884 29.4114 57.0322 28.8214 56.3928C28.2314 55.7534 28.3064 54.7665 28.9458 54.1765C32.847 50.6744 37.6593 48.3272 42.8209 47.4091C43.6703 47.2498 44.4846 47.8262 44.6439 48.6757C44.7859 49.3945 44.416 50.0617 43.798 50.3631Z" fill="white"/>
</svg>
