<svg width="56" height="67" viewBox="0 0 56 67" fill="none" xmlns="http://www.w3.org/2000/svg">
<path d="M42.4339 46.5488C41.8534 46.832 41.1999 46.9653 40.5204 46.9027L30.8381 46.1083C30.0425 46.4732 29.2287 46.8006 28.4249 47.0536C27.8828 47.2253 27.2877 47.0982 26.863 46.7027C26.4383 46.3072 26.2762 45.7372 26.4215 45.1796C26.9541 43.135 26.7505 41.1019 25.8555 39.2668C23.6454 34.7354 17.8578 32.9919 12.9519 35.3846C11.1169 36.2796 9.60335 37.6438 8.59899 39.3389C8.3149 39.802 7.82759 40.086 7.27773 40.0992C6.7466 40.1033 6.22735 39.8466 5.93372 39.3871C5.62183 38.8902 5.32868 38.3842 5.06383 37.8412C0.533998 28.5537 4.90522 17.0805 14.792 12.2584C24.6787 7.43633 36.4109 11.0554 40.9407 20.3429C43.4248 25.4361 43.3486 31.268 40.7534 36.4974L43.8742 41.2801C44.645 42.4804 44.6678 43.9527 43.9384 45.1661C43.5784 45.7589 43.0518 46.2475 42.4339 46.5488ZM29.8148 43.1074C30.0678 42.9608 30.3665 42.9079 30.6643 42.9481L40.7841 43.784C41.054 43.8146 41.1951 43.6762 41.2709 43.5465C41.3371 43.4447 41.4139 43.2218 41.2486 42.9779L37.6323 37.417C37.3204 36.9201 37.2986 36.305 37.5644 35.8045C40.0783 31.2637 40.2781 26.1131 38.1137 21.6753C34.3419 13.9419 24.4949 10.9565 16.1436 15.0297C8.11061 18.9476 4.36888 28.0046 7.46207 35.5822C8.60158 34.3542 9.97218 33.3148 11.5451 32.5477C18.0052 29.3969 25.6591 31.783 28.6273 37.8686C29.4497 39.5072 29.8327 41.2906 29.8148 43.1074Z" fill="#E32652"/>
<path d="M18.3523 60.3348C17.8655 60.5722 17.3334 60.6695 16.7658 60.5987C15.6583 60.4667 14.7523 59.7496 14.3806 58.7024L13.3486 55.636C9.81615 54.8092 6.82951 52.4877 5.26781 49.2857C3.48693 45.6344 3.73474 41.2949 5.94123 37.6922C7.258 35.497 9.21366 33.7087 11.5917 32.5489C18.0518 29.3981 25.7058 31.7842 28.6739 37.8698C29.8794 40.3415 30.1679 43.2141 29.4608 45.9465C28.5961 49.5438 26.1622 52.5851 22.7341 54.3962L19.4895 59.3397C19.1963 59.784 18.8017 60.1156 18.3523 60.3348ZM12.9429 35.3667C11.1079 36.2617 9.59429 37.6258 8.58993 39.3209C6.94203 42.0254 6.74271 45.2285 8.05783 47.9249C9.32728 50.5277 11.7605 52.2848 14.7563 52.7243C15.3331 52.8138 15.8044 53.2098 16.0039 53.7614L17.1537 57.1644L20.3321 52.3227C20.4929 52.0821 20.6997 51.8884 20.9431 51.7696C23.6957 50.4271 25.7231 47.9781 26.3937 45.1708C26.9172 43.1075 26.7323 41.0651 25.8373 39.2301C23.6363 34.7174 17.8488 32.974 12.9429 35.3667Z" fill="#E32652"/>
</svg>
