<svg width="214" height="214" viewBox="0 0 214 214" fill="none" xmlns="http://www.w3.org/2000/svg">
<path d="M170.992 148.959C169.134 149.865 167.043 150.291 164.869 150.091L133.885 147.549C131.34 148.717 128.735 149.764 126.163 150.574C124.428 151.123 122.524 150.717 121.165 149.451C119.806 148.185 119.287 146.361 119.752 144.577C121.457 138.034 120.805 131.528 117.941 125.656C110.869 111.156 92.3486 105.576 76.6497 113.233C70.7775 116.097 65.9342 120.462 62.7203 125.887C61.8112 127.369 60.2518 128.278 58.4923 128.32C56.7926 128.333 55.131 127.511 54.1914 126.041C53.1934 124.451 52.2553 122.832 51.4078 121.094C36.9123 91.3741 50.9002 54.6599 82.5378 39.2293C114.175 23.7986 151.718 35.3795 166.214 65.0996C174.163 81.3977 173.919 100.06 165.614 116.794L175.601 132.099C178.068 135.939 178.14 140.651 175.806 144.534C174.655 146.431 172.969 147.994 170.992 148.959ZM130.611 137.946C131.42 137.477 132.376 137.308 133.329 137.436L165.713 140.111C166.576 140.209 167.028 139.766 167.27 139.351C167.482 139.025 167.728 138.312 167.199 137.532L155.627 119.737C154.629 118.147 154.559 116.178 155.41 114.577C163.454 100.046 164.094 83.5643 157.167 69.3634C145.097 44.6166 113.587 35.063 86.863 48.0972C61.1575 60.6347 49.1839 89.6169 59.0821 113.865C62.7286 109.936 67.1145 106.61 72.1477 104.155C92.82 94.0723 117.313 101.708 126.811 121.182C129.442 126.425 130.668 132.132 130.611 137.946Z" fill="#E32652"/>
<path d="M93.9274 193.073C92.3695 193.833 90.667 194.144 88.8505 193.918C85.3066 193.495 82.4073 191.201 81.2179 187.85L77.9156 178.037C66.6117 175.391 57.0544 167.962 52.057 157.716C46.3582 146.032 47.1512 132.146 54.2119 120.617C58.4256 113.592 64.6837 107.87 72.2935 104.158C92.9658 94.0758 117.458 101.711 126.956 121.185C130.814 129.095 131.737 138.287 129.475 147.031C126.707 158.542 118.919 168.274 107.949 174.07L97.5665 189.889C96.6282 191.311 95.3655 192.372 93.9274 193.073ZM76.6173 113.176C70.7452 116.04 65.9017 120.404 62.6878 125.829C57.4145 134.483 56.7767 144.733 60.985 153.362C65.0473 161.691 72.8335 167.313 82.4203 168.72C84.266 169.006 85.774 170.273 86.4125 172.039L90.0918 182.928L100.263 167.435C100.777 166.665 101.439 166.045 102.218 165.665C111.026 161.369 117.514 153.532 119.66 144.549C121.335 137.946 120.743 131.41 117.879 125.538C110.836 111.098 92.3163 105.519 76.6173 113.176Z" fill="#E32652"/>
</svg>
