<svg width="1440" height="716" viewBox="0 0 1440 716" fill="none" xmlns="http://www.w3.org/2000/svg">
<path d="M184.367 639.948L148.415 657.46C115.879 673.308 95.1976 666.196 79.3286 633.702L61.7937 597.798C45.9247 565.304 53.0459 544.65 85.5822 528.802L121.534 511.29C154.07 495.441 174.752 502.553 190.621 535.047L208.156 570.952C224.025 603.445 216.904 624.1 184.367 639.948ZM89.9659 537.778C62.343 551.233 57.309 565.833 70.7816 593.42L88.3165 629.324C101.789 656.911 116.409 661.938 144.032 648.483L179.983 630.972C207.606 617.517 212.64 602.916 199.168 575.33L181.633 539.425C168.16 511.838 153.541 506.811 125.918 520.266L89.9659 537.778Z" fill="#E32652"/>
<path d="M177.131 617.544C168.023 621.98 157.059 618.21 152.616 609.114L126.314 555.257C121.872 546.161 125.647 535.211 134.755 530.775C143.863 526.338 154.828 530.109 159.27 539.205L185.572 593.062C190.014 602.157 186.239 613.108 177.131 617.544ZM139.139 539.751C135.004 541.765 133.286 546.75 135.302 550.879L161.604 604.736C163.621 608.865 168.613 610.582 172.747 608.568C176.882 606.554 178.601 601.569 176.584 597.44L150.282 543.583C148.265 539.454 143.273 537.737 139.139 539.751Z" fill="#E32652"/>
<path d="M135.19 637.975C126.083 642.411 115.118 638.64 110.676 629.545L100.447 608.6C96.0048 599.504 99.7803 588.554 108.888 584.118C117.996 579.681 128.961 583.452 133.403 592.548L143.631 613.492C148.074 622.588 144.298 633.538 135.19 637.975ZM113.272 593.094C109.137 595.108 107.418 600.093 109.435 604.222L119.664 625.167C121.68 629.296 126.672 631.012 130.807 628.998C134.941 626.985 136.66 621.999 134.643 617.87L124.415 596.926C122.398 592.797 117.406 591.08 113.272 593.094Z" fill="#E32652"/>
<path d="M1324.01 216.591L1299.56 204.683C1286.08 198.116 1280.46 181.824 1287.04 168.359C1293.61 154.895 1309.93 149.285 1323.41 155.852L1347.86 167.76L1324.01 216.591ZM1319.05 164.769C1310.54 160.624 1300.2 164.18 1296.05 172.677C1291.9 181.175 1295.46 191.502 1303.97 195.647L1319.43 203.177L1334.54 172.239L1319.08 164.709L1319.05 164.769Z" fill="#E32652"/>
<path d="M1304.54 256.445L1280.1 244.537C1266.61 237.97 1261 221.678 1267.57 208.214C1274.15 194.75 1290.46 189.14 1303.94 195.707L1328.39 207.615L1304.54 256.445ZM1299.56 204.683C1291.05 200.538 1280.71 204.094 1276.56 212.592C1272.41 221.089 1275.97 231.416 1284.48 235.561L1299.94 243.091L1315.05 212.153L1299.59 204.623L1299.56 204.683Z" fill="#E32652"/>
<path d="M1260.6 284.45C1247.12 277.883 1241.5 261.591 1248.08 248.127C1254.66 234.663 1270.97 229.053 1284.45 235.62L1308.9 247.528L1296.97 271.943C1290.4 285.407 1274.09 291.017 1260.6 284.45ZM1280.1 244.536C1271.59 240.392 1261.25 243.948 1257.1 252.445C1252.95 260.943 1256.51 271.27 1265.02 275.414C1273.52 279.559 1283.87 276.003 1288.02 267.505L1295.56 252.066L1280.1 244.536Z" fill="#E32652"/>
<path d="M1339.47 224.122L1315.02 212.213L1338.9 163.323L1363.35 175.231C1376.83 181.798 1382.44 198.09 1375.87 211.554C1369.35 225.048 1352.95 230.688 1339.47 224.122ZM1328.39 207.615L1343.85 215.145C1352.36 219.29 1362.7 215.734 1366.85 207.236C1371 198.739 1367.44 188.412 1358.93 184.267L1343.47 176.737L1328.39 207.615Z" fill="#E32652"/>
<path d="M1320 263.976C1306.52 257.409 1300.9 241.117 1307.48 227.652C1314.05 214.188 1330.37 208.579 1343.85 215.145C1357.33 221.712 1362.95 238.004 1356.37 251.468C1349.8 264.933 1333.48 270.542 1320 263.976ZM1339.47 224.122C1330.96 219.977 1320.62 223.533 1316.47 232.03C1312.32 240.528 1315.88 250.855 1324.39 254.999C1332.89 259.144 1343.24 255.588 1347.38 247.09C1351.53 238.593 1348.03 228.295 1339.47 224.122Z" fill="#E32652"/>
<path d="M159.383 216.276C153.092 219.34 146.566 221.926 139.867 224.004C132.211 226.4 124.106 222.866 120.539 215.714L103.296 180.408C98.5036 170.594 102.586 158.754 112.413 153.967L139.017 141.008C143.871 138.644 145.896 132.768 143.529 127.921L126.316 92.675C124.972 89.9223 121.884 88.6114 118.923 89.5351C106.482 93.3729 94.7973 99.0643 84.1095 106.492C81.6177 108.225 80.7203 111.551 82.0646 114.303L92.7901 136.265C93.9884 138.719 92.9447 141.746 90.488 142.942C88.0313 144.139 85.0004 143.097 83.8022 140.643L73.0767 118.681C69.6296 111.471 71.8311 102.917 78.4354 98.3671C89.9635 90.3814 102.606 84.2231 116.005 80.0673C123.661 77.6712 131.766 81.205 135.333 88.3568L152.576 123.663C157.368 133.477 153.286 145.317 143.459 150.104L116.855 163.063C112.001 165.427 109.976 171.303 112.343 176.15L129.556 211.396C130.901 214.149 133.988 215.46 136.949 214.536C149.391 210.698 161.075 205.007 171.763 197.579C174.254 195.846 175.152 192.52 173.808 189.768L163.082 167.806C161.884 165.353 162.928 162.326 165.384 161.129C167.841 159.932 170.872 160.975 172.07 163.428L182.796 185.39C186.243 192.6 184.041 201.154 177.437 205.704C171.733 209.668 165.675 213.211 159.383 216.276Z" fill="white"/>
<path d="M143.14 183.001C140.683 184.198 137.652 183.156 136.454 180.702C135.256 178.249 136.299 175.222 138.756 174.025L187.411 150.326C190.167 148.983 191.48 145.899 190.555 142.942C186.712 130.518 181.013 118.849 173.575 108.175C171.811 105.627 168.57 104.761 165.814 106.103L143.823 116.815C141.367 118.011 138.336 116.969 137.137 114.516C135.939 112.062 136.983 109.035 139.44 107.839L161.43 97.1272C168.649 93.6847 177.215 95.8832 181.771 102.479C189.767 113.992 195.934 126.618 200.095 139.999C202.494 147.646 198.956 155.74 191.794 159.302L143.14 183.001V183.001Z" fill="white"/>
<path d="M116.547 195.955L94.5571 206.667C87.3375 210.109 78.7722 207.911 74.2159 201.315C66.2198 189.802 60.0533 177.176 55.892 163.795C53.4928 156.148 57.0314 148.054 64.1925 144.492L112.787 120.822C115.244 119.625 118.275 120.667 119.473 123.121C120.671 125.574 119.628 128.601 117.171 129.798L68.5163 153.497C65.76 154.84 64.4474 157.924 65.3723 160.881C69.2151 173.306 74.9139 184.975 82.3519 195.648C84.1157 198.197 87.3571 199.062 90.1134 197.72L112.104 187.008C114.56 185.812 117.591 186.854 118.79 189.308C119.988 191.761 119.004 194.759 116.547 195.955Z" fill="white"/>
<path d="M99.2031 118.401C96.7464 119.598 93.2099 118.431 91.9825 115.918C90.755 113.405 91.9814 109.993 94.498 108.767C95.6365 108.212 97.2778 108.079 98.4966 108.449C99.8046 108.849 101.105 109.993 101.69 111.19C102.917 113.703 101.72 117.175 99.2031 118.401Z" fill="white"/>
<path d="M161.444 195.124C158.987 196.321 155.45 195.154 154.223 192.641C152.995 190.128 154.193 186.656 156.709 185.43C157.848 184.875 159.489 184.743 160.708 185.112C162.015 185.512 163.316 186.656 163.901 187.853C165.097 190.455 163.9 193.927 161.444 195.124Z" fill="white"/>
</svg>
