<svg width="619" height="308" viewBox="0 0 619 308" fill="none" xmlns="http://www.w3.org/2000/svg">
<path d="M79.2527 275.285L63.7985 282.818C49.8123 289.635 40.9222 286.576 34.1007 272.598L26.5631 257.153C19.7417 243.176 22.8028 234.291 36.7889 227.473L52.2432 219.94C66.2293 213.123 75.1194 216.182 81.9409 230.16L89.4785 245.605C96.3 259.583 93.2388 268.468 79.2527 275.285ZM38.6733 231.335C26.7993 237.123 24.6354 243.403 30.4267 255.27L37.9643 270.715C43.7556 282.582 50.04 284.745 61.9141 278.957L77.3683 271.424C89.2424 265.636 91.4063 259.355 85.6149 247.488L78.0774 232.043C72.286 220.176 66.0016 218.014 54.1276 223.802L38.6733 231.335Z" fill="#E32652"/>
<path d="M76.1417 265.648C72.2266 267.556 67.5133 265.934 65.6038 262.021L54.2975 238.854C52.388 234.941 54.0109 230.231 57.926 228.322C61.8411 226.414 66.5544 228.036 68.4639 231.948L79.7702 255.116C81.6797 259.029 80.0568 263.739 76.1417 265.648ZM59.8104 232.183C58.0331 233.05 57.2942 235.194 58.161 236.97L69.4674 260.138C70.3342 261.914 72.4801 262.653 74.2573 261.786C76.0346 260.92 76.7735 258.775 75.9067 256.999L64.6003 233.832C63.7335 232.056 61.5876 231.317 59.8104 232.183Z" fill="#E32652"/>
<path d="M58.1132 274.436C54.1981 276.344 49.4848 274.723 47.5752 270.81L43.1783 261.8C41.2688 257.887 42.8918 253.177 46.8068 251.269C50.7219 249.36 55.4352 250.982 57.3448 254.895L61.7417 263.905C63.6512 267.817 62.0282 272.528 58.1132 274.436ZM48.6912 255.13C46.914 255.996 46.1751 258.141 47.0419 259.917L51.4388 268.927C52.3056 270.703 54.4515 271.441 56.2288 270.575C58.006 269.709 58.7449 267.564 57.8781 265.788L53.4812 256.778C52.6144 255.002 50.4685 254.264 48.6912 255.13Z" fill="#E32652"/>
<path d="M569.14 93.1702L558.631 88.0478C552.835 85.2229 550.421 78.2146 553.248 72.4227C556.074 66.6309 563.086 64.2177 568.882 67.0426L579.391 72.165L569.14 93.1702ZM567.01 70.878C563.353 69.0952 558.908 70.6249 557.124 74.2802C555.34 77.9355 556.87 82.3779 560.528 84.1607L567.173 87.4L573.668 74.0915L567.023 70.8523L567.01 70.878Z" fill="#E32652"/>
<path d="M560.773 110.314L550.264 105.192C544.468 102.367 542.054 95.3587 544.88 89.5668C547.707 83.775 554.719 81.3618 560.515 84.1867L571.024 89.3092L560.773 110.314ZM558.63 88.0479C554.973 86.2651 550.528 87.7948 548.744 91.4501C546.96 95.1054 548.49 99.5477 552.148 101.331L558.793 104.57L565.288 91.2614L558.643 88.0222L558.63 88.0479Z" fill="#E32652"/>
<path d="M541.885 122.361C536.089 119.536 533.675 112.528 536.501 106.736C539.328 100.944 546.34 98.5312 552.136 101.356L562.645 106.479L557.519 116.981C554.693 122.773 547.68 125.186 541.885 122.361ZM550.264 105.192C546.606 103.409 542.161 104.938 540.378 108.594C538.594 112.249 540.124 116.691 543.782 118.474C547.439 120.257 551.884 118.727 553.668 115.072L556.909 108.431L550.264 105.192Z" fill="#E32652"/>
<path d="M575.785 96.4098L565.276 91.2873L575.54 70.2563L586.049 75.3788C591.844 78.2037 594.259 85.2119 591.432 91.0038C588.631 96.8082 581.581 99.2347 575.785 96.4098ZM571.024 89.3093L577.67 92.5485C581.327 94.3314 585.772 92.8016 587.556 89.1463C589.34 85.491 587.81 81.0487 584.152 79.2658L577.507 76.0266L571.024 89.3093Z" fill="#E32652"/>
<path d="M567.418 113.554C561.623 110.729 559.208 103.721 562.035 97.9287C564.861 92.1368 571.874 89.7237 577.669 92.5486C583.464 95.3735 585.879 102.382 583.052 108.174C580.226 113.965 573.213 116.379 567.418 113.554ZM575.785 96.4099C572.127 94.6271 567.682 96.1566 565.898 99.812C564.114 103.467 565.645 107.91 569.302 109.692C572.96 111.475 577.405 109.946 579.189 106.29C580.973 102.635 579.468 98.2052 575.785 96.4099Z" fill="#E32652"/>
<path d="M68.5132 93.0348C65.8087 94.353 63.0037 95.4654 60.124 96.3593C56.8327 97.39 53.3488 95.8698 51.8155 92.7933L44.4036 77.6058C42.3433 73.3842 44.0982 68.2907 48.3224 66.2317L59.7585 60.6572C61.8449 59.6403 62.7157 57.1127 61.6981 55.0276L54.2988 39.8658C53.7209 38.6817 52.3936 38.1178 51.1209 38.5151C45.7729 40.166 40.7501 42.6143 36.1559 45.8096C35.0848 46.5548 34.699 47.9855 35.2769 49.1697L39.8874 58.6169C40.4024 59.6723 39.9538 60.9744 38.8978 61.4891C37.8417 62.0039 36.5389 61.5555 36.0238 60.5001L31.4133 51.0529C29.9316 47.9514 30.8779 44.2718 33.7168 42.3144C38.6723 38.8792 44.107 36.2301 49.8665 34.4424C53.1577 33.4117 56.6416 34.9318 58.1749 38.0082L65.5868 53.1958C67.6471 57.4174 65.8922 62.5109 61.668 64.5699L50.2319 70.1444C48.1456 71.1613 47.2747 73.6889 48.2923 75.774L55.6917 90.9358C56.2695 92.12 57.5969 92.6838 58.8697 92.2865C64.2177 90.6356 69.2403 88.1874 73.8346 84.992C74.9057 84.2468 75.2915 82.816 74.7136 81.6319L70.1032 72.1847C69.5881 71.1293 70.0367 69.8273 71.0928 69.3125C72.1488 68.7977 73.4517 69.2461 73.9668 70.3015L78.5772 79.7486C80.0589 82.8502 79.1127 86.5299 76.2737 88.4873C73.8217 90.1923 71.2177 91.7165 68.5132 93.0348Z" fill="white"/>
<path d="M61.5302 78.7213C60.4742 79.2361 59.1713 78.7877 58.6562 77.7323C58.1412 76.6769 58.5898 75.3748 59.6458 74.8601L80.5606 64.6654C81.7454 64.0879 82.3096 62.7613 81.912 61.4893C80.2602 56.1445 77.8105 51.1249 74.6132 46.5334C73.855 45.4372 72.4617 45.0648 71.2768 45.6423L61.824 50.25C60.768 50.7647 59.4651 50.3164 58.95 49.261C58.435 48.2056 58.8836 46.9035 59.9396 46.3887L69.3924 41.781C72.4959 40.3002 76.1777 41.2459 78.1363 44.0831C81.5736 49.0356 84.2243 54.4672 86.0131 60.2232C87.0444 63.5125 85.5233 66.9943 82.445 68.5267L61.5302 78.7213V78.7213Z" fill="white"/>
<path d="M50.0998 84.2937L40.647 88.9014C37.5436 90.3822 33.8617 89.4365 31.9031 86.5993C28.4659 81.6468 25.8152 76.2152 24.0264 70.4592C22.9951 67.17 24.5162 63.6881 27.5945 62.1558L48.4834 51.9737C49.5395 51.4589 50.8424 51.9072 51.3574 52.9626C51.8725 54.0181 51.4239 55.3201 50.3678 55.8349L29.4531 66.0296C28.2682 66.6071 27.704 67.9337 28.1016 69.2057C29.7535 74.5505 32.2032 79.5701 35.4005 84.1616C36.1587 85.2578 37.552 85.6302 38.7368 85.0527L48.1897 80.445C49.2457 79.9303 50.5486 80.3786 51.0636 81.434C51.5787 82.4894 51.1559 83.7789 50.0998 84.2937Z" fill="white"/>
<path d="M42.644 50.9323C41.588 51.447 40.0678 50.9453 39.5401 49.8642C39.0125 48.783 39.5397 47.3152 40.6215 46.7879C41.1109 46.5494 41.8164 46.4922 42.3403 46.6511C42.9026 46.8232 43.4616 47.3154 43.7129 47.8302C44.2405 48.9114 43.7258 50.405 42.644 50.9323Z" fill="white"/>
<path d="M69.3989 83.936C68.3428 84.4508 66.8225 83.9491 66.2949 82.868C65.7673 81.7868 66.2819 80.2932 67.3637 79.7659C67.8531 79.5274 68.5586 79.4703 69.0825 79.6291C69.6447 79.8012 70.2038 80.2934 70.4551 80.8082C70.9695 81.9277 70.4549 83.4213 69.3989 83.936Z" fill="white"/>
</svg>
