<svg width="390" height="624" viewBox="0 0 390 624" fill="none" xmlns="http://www.w3.org/2000/svg">
<g clip-path="url(#clip0_25_268)">
<path d="M354.611 67.5581C343.507 62.1424 338.883 48.715 344.299 37.6112C349.715 26.5073 363.142 21.8839 374.246 27.2996C385.35 32.7153 389.973 46.1427 384.557 57.2465C379.142 68.3504 365.714 72.9738 354.611 67.5581ZM372.876 30.1084C363.326 25.4507 351.765 29.4314 347.108 38.9811C342.45 48.5308 346.431 60.0917 355.98 64.7494C365.53 69.4071 377.091 65.4263 381.749 55.8766C386.406 46.327 382.426 34.766 372.876 30.1084Z" fill="#E32652"/>
<path d="M367.787 58.1767C367.544 58.058 367.328 57.8831 367.176 57.6237L363.061 51.3284C362.039 49.7639 361.895 47.3521 362.707 45.6856L366.452 38.0084C366.826 37.2406 367.773 36.9145 368.541 37.289C369.309 37.6634 369.635 38.6106 369.26 39.3783L365.516 47.0555C365.187 47.7296 365.265 48.996 365.681 49.6161L369.796 55.9114C370.279 56.6334 370.064 57.5952 369.342 58.0775C368.842 58.3899 368.256 58.405 367.787 58.1767Z" fill="#E32652"/>
<path d="M362.268 591.26C361.893 591.077 361.61 590.754 361.476 590.364L359.155 583.622C358.877 582.815 359.315 581.916 360.123 581.638C360.931 581.359 361.83 581.798 362.108 582.606L363.921 587.871L375.899 583.746C376.707 583.468 377.606 583.906 377.884 584.714C378.162 585.522 377.724 586.421 376.916 586.699L363.461 591.332C363.071 591.466 362.642 591.443 362.268 591.26Z" fill="white"/>
<path d="M357.611 606.558C356.431 605.983 355.443 605.014 354.909 603.78L353.193 599.791C353.021 599.382 352.4 598.755 352.007 598.563L348.786 596.992C346.015 595.641 344.864 592.298 346.216 589.527L347.777 586.325C347.969 585.931 348.063 585.073 347.947 584.646L346.871 580.436C346.222 577.87 347.619 575.006 350.04 573.938L354.02 572.194C354.429 572.022 355.047 571.42 355.239 571.026L356.809 567.806C358.161 565.034 361.504 563.883 364.275 565.235L367.515 566.815C367.908 567.007 368.794 567.091 369.212 566.994L373.413 565.89C376.015 565.212 378.88 566.61 379.948 569.078L381.664 573.067C381.836 573.475 382.457 574.103 382.85 574.295L386.034 575.847C388.805 577.199 389.956 580.542 388.604 583.313L387.052 586.496C386.86 586.89 386.776 587.776 386.892 588.203L387.995 592.404C388.673 595.006 387.276 597.871 384.808 598.939L380.818 600.655C380.41 600.827 379.764 601.439 379.572 601.832L378.019 605.015C376.668 607.786 373.325 608.938 370.554 607.586L367.37 606.033C366.977 605.842 366.091 605.757 365.673 605.854L361.472 606.958C360.162 607.316 358.791 607.134 357.611 606.558ZM362.905 568.044C361.688 567.45 360.212 567.958 359.618 569.176L358.057 572.378C357.536 573.445 356.364 574.565 355.278 575.032L351.298 576.777C350.268 577.225 349.62 578.554 349.901 579.642L350.977 583.852C351.268 585.014 351.116 586.608 350.595 587.676L349.033 590.878C348.44 592.095 348.948 593.571 350.165 594.165L353.405 595.745C354.491 596.275 355.611 597.447 356.088 598.56L357.804 602.55C358.252 603.58 359.601 604.237 360.688 603.956L364.889 602.853C366.05 602.562 367.673 602.704 368.759 603.234L371.942 604.786C373.159 605.38 374.636 604.872 375.229 603.654L376.782 600.471C377.312 599.385 378.484 598.265 379.597 597.788L383.587 596.071C384.617 595.623 385.274 594.275 384.993 593.188L383.89 588.987C383.58 587.816 383.741 586.203 384.271 585.117L385.814 581.952C386.408 580.735 385.9 579.259 384.682 578.665L381.499 577.113C380.413 576.583 379.293 575.411 378.816 574.297L377.1 570.308C376.651 569.278 375.303 568.62 374.216 568.901L370.006 570.024C368.844 570.314 367.212 570.144 366.145 569.624L362.905 568.044Z" fill="white"/>
<path d="M42.4344 597.549C41.8539 597.832 41.2004 597.965 40.5208 597.903L30.8386 597.108C30.043 597.473 29.2292 597.801 28.4254 598.054C27.8833 598.225 27.2882 598.098 26.8635 597.703C26.4388 597.307 26.2767 596.737 26.4219 596.18C26.9546 594.135 26.751 592.102 25.856 590.267C23.6459 585.735 17.8583 583.992 12.9524 586.385C11.1174 587.28 9.60384 588.644 8.59948 590.339C8.31539 590.802 7.82808 591.086 7.27822 591.099C6.74709 591.103 6.22784 590.847 5.93421 590.387C5.62232 589.89 5.32917 589.384 5.06432 588.841C0.534486 579.554 4.9057 568.08 14.7924 563.258C24.6792 558.436 36.4114 562.055 40.9412 571.343C43.4253 576.436 43.3491 582.268 40.7539 587.497L43.8747 592.28C44.6455 593.48 44.6683 594.953 43.9388 596.166C43.5789 596.759 43.0523 597.247 42.4344 597.549ZM29.8153 594.107C30.0683 593.961 30.367 593.908 30.6648 593.948L40.7846 594.784C41.0545 594.815 41.1956 594.676 41.2714 594.547C41.3376 594.445 41.4144 594.222 41.2491 593.978L37.6328 588.417C37.3209 587.92 37.2991 587.305 37.5649 586.804C40.0788 582.264 40.2786 577.113 38.1142 572.675C34.3424 564.942 24.4954 561.956 16.1441 566.03C8.11109 569.948 4.36937 579.005 7.46256 586.582C8.60207 585.354 9.97267 584.315 11.5456 583.548C18.0056 580.397 25.6596 582.783 28.6277 588.869C29.4501 590.507 29.8332 592.291 29.8153 594.107Z" fill="#E32652"/>
<path d="M18.3523 611.335C17.8655 611.572 17.3334 611.67 16.7658 611.599C15.6583 611.467 14.7523 610.75 14.3806 609.702L13.3486 606.636C9.81615 605.809 6.82951 603.488 5.26781 600.286C3.48693 596.634 3.73474 592.295 5.94123 588.692C7.258 586.497 9.21366 584.709 11.5917 583.549C18.0518 580.398 25.7058 582.784 28.6739 588.87C29.8794 591.341 30.1679 594.214 29.4608 596.946C28.5961 600.544 26.1622 603.585 22.7341 605.396L19.4895 610.34C19.1963 610.784 18.8017 611.116 18.3523 611.335ZM12.9429 586.367C11.1079 587.262 9.59429 588.626 8.58993 590.321C6.94203 593.025 6.74271 596.229 8.05783 598.925C9.32728 601.528 11.7605 603.285 14.7563 603.724C15.3331 603.814 15.8044 604.21 16.0039 604.761L17.1537 608.164L20.3321 603.323C20.4929 603.082 20.6997 602.888 20.9431 602.77C23.6957 601.427 25.7231 598.978 26.3937 596.171C26.9172 594.108 26.7323 592.065 25.8373 590.23C23.6363 585.717 17.8488 583.974 12.9429 586.367Z" fill="#E32652"/>
<path d="M29.1196 40.8933C28.8762 41.0121 28.6053 41.0746 28.3354 41.044C27.4696 40.9796 26.8247 40.2278 26.8796 39.3898L27.1196 35.8422L25.5467 36.6094C24.6104 37.066 23.6418 37.0285 22.8919 36.5366C22.1329 36.026 21.7503 35.1464 21.8166 34.0942L22.1214 29.6341C22.1859 28.7682 22.9376 28.1234 23.7757 28.1783C24.6415 28.2427 25.2864 28.9945 25.2315 29.8325L25.0007 33.3988L26.5736 32.6316C27.5098 32.175 28.4784 32.2125 29.2283 32.7044C29.9873 33.215 30.3699 34.0947 30.3037 35.1469L29.9988 39.6069C29.9558 40.1841 29.6064 40.6559 29.1196 40.8933Z" fill="white"/>
<path d="M39.6919 49.4122L29.3745 54.4443C28.5506 54.8462 27.4564 55.264 26.4165 54.8903C25.4045 54.5263 25.0031 53.6558 24.7387 53.0662L23.9259 51.3997C17.673 50.5554 11.8979 46.6037 9.35898 41.3982C6.95707 36.4736 6.91995 30.7896 9.25165 25.8278C11.5834 20.866 16.0541 17.2483 21.5085 15.9325C26.692 14.6791 32.2617 15.8335 36.4138 19.0237C44.4681 25.2247 44.8743 35.9903 40.6751 43.2538L41.3601 44.6581C41.6436 45.192 42.1464 46.1753 41.7622 47.3362C41.4558 48.181 40.778 48.8825 39.6919 49.4122ZM27.5835 51.8178C27.6772 51.7721 27.8174 51.7269 27.9859 51.6447L38.322 46.6034C38.5093 46.5121 38.6312 46.4295 38.697 46.3742C38.6696 46.318 38.6331 46.2431 38.6057 46.187L37.4549 43.8276C37.2175 43.3408 37.2513 42.7448 37.5445 42.3005C41.4523 36.2454 41.3871 26.7969 34.4608 21.4829C31.0486 18.859 26.4644 17.9193 22.1961 18.9581C17.6757 20.0502 13.9658 23.0418 12.0337 27.1597C10.1017 31.2775 10.1393 35.9645 12.1303 40.0466C14.6692 45.2521 20.4562 47.9926 25.0642 48.4107C25.6227 48.4628 26.0853 48.7935 26.3228 49.2803L27.5557 51.8082C27.5744 51.7991 27.5744 51.7991 27.5835 51.8178Z" fill="white"/>
<path d="M43.799 54.3631C43.6679 54.427 43.5277 54.4722 43.3784 54.4987C38.7676 55.3104 34.517 57.3835 31.0387 60.5172C30.3902 61.0884 29.4124 61.0322 28.8224 60.3928C28.2324 59.7534 28.3073 58.7665 28.9467 58.1765C32.848 54.6744 37.6603 52.3272 42.8219 51.4091C43.6713 51.2498 44.4856 51.8262 44.6449 52.6757C44.7869 53.3945 44.4169 54.0617 43.799 54.3631Z" fill="white"/>
</g>
<defs>
<clipPath id="clip0_25_268">
<rect width="390" height="624" fill="white"/>
</clipPath>
</defs>
</svg>
