<svg width="1440" height="923" viewBox="0 0 1440 923" fill="none" xmlns="http://www.w3.org/2000/svg">
<path d="M1295.46 815.432C1294.26 814.847 1293.35 813.813 1292.92 812.565L1285.5 790.992C1284.61 788.407 1286.01 785.53 1288.59 784.64C1291.18 783.75 1294.05 785.153 1294.94 787.738L1300.75 804.586L1339.08 791.388C1341.66 790.497 1344.54 791.9 1345.43 794.485C1346.32 797.071 1344.92 799.947 1342.33 800.837L1299.28 815.662C1298.03 816.092 1296.65 816.016 1295.46 815.432Z" fill="white"/>
<path d="M1280.56 864.386C1276.78 862.545 1273.62 859.446 1271.91 855.497L1266.42 842.731C1265.87 841.424 1263.88 839.416 1262.62 838.802L1252.32 833.776C1243.45 829.451 1239.77 818.753 1244.09 809.885L1249.09 799.639C1249.7 798.381 1250 795.635 1249.63 794.267L1246.19 780.794C1244.11 772.585 1248.58 763.418 1256.33 760.002L1269.07 754.42C1270.37 753.871 1272.35 751.943 1272.96 750.685L1277.99 740.378C1282.32 731.51 1293.01 727.827 1301.88 732.152L1312.25 737.208C1313.51 737.822 1316.34 738.092 1317.68 737.781L1331.12 734.249C1339.45 732.08 1348.62 736.551 1352.03 744.448L1357.53 757.215C1358.08 758.522 1360.06 760.529 1361.32 761.143L1371.51 766.111C1380.38 770.437 1384.06 781.134 1379.74 790.002L1374.77 800.188C1374.15 801.447 1373.88 804.282 1374.25 805.65L1377.79 819.092C1379.95 827.419 1375.48 836.586 1367.59 840.003L1354.82 845.496C1353.51 846.046 1351.45 848.004 1350.83 849.262L1345.86 859.449C1341.54 868.317 1330.84 872 1321.97 867.675L1311.79 862.707C1310.53 862.093 1307.69 861.823 1306.35 862.134L1292.91 865.666C1288.72 866.81 1284.33 866.228 1280.56 864.386ZM1297.5 741.14C1293.6 739.24 1288.88 740.867 1286.98 744.762L1281.98 755.008C1280.32 758.424 1276.57 762.009 1273.09 763.504L1260.36 769.086C1257.06 770.52 1254.99 774.774 1255.88 778.254L1259.33 791.726C1260.26 795.444 1259.77 800.547 1258.11 803.963L1253.11 814.209C1251.21 818.104 1252.84 822.828 1256.73 824.728L1267.1 829.784C1270.57 831.479 1274.16 835.23 1275.68 838.793L1281.18 851.56C1282.61 854.855 1286.92 856.959 1290.4 856.06L1303.84 852.529C1307.56 851.597 1312.75 852.053 1316.23 853.748L1326.42 858.716C1330.31 860.616 1335.04 858.989 1336.94 855.094L1341.9 844.908C1343.6 841.433 1347.35 837.848 1350.91 836.322L1363.68 830.829C1366.97 829.395 1369.08 825.081 1368.18 821.601L1364.65 808.159C1363.66 804.412 1364.17 799.249 1365.87 795.774L1370.81 785.648C1372.71 781.753 1371.08 777.028 1367.19 775.128L1357 770.16C1353.52 768.465 1349.94 764.714 1348.41 761.151L1342.92 748.385C1341.49 745.089 1337.17 742.985 1333.69 743.884L1320.22 747.475C1316.5 748.407 1311.28 747.862 1307.86 746.196L1297.5 741.14Z" fill="white"/>
<path d="M191.992 816.959C190.134 817.865 188.043 818.291 185.869 818.091L154.885 815.549C152.34 816.717 149.735 817.764 147.163 818.574C145.428 819.123 143.524 818.717 142.165 817.451C140.806 816.185 140.287 814.361 140.752 812.577C142.457 806.034 141.805 799.528 138.941 793.656C131.869 779.156 113.349 773.576 97.6497 781.233C91.7775 784.097 86.9342 788.462 83.7203 793.887C82.8112 795.369 81.2518 796.278 79.4923 796.32C77.7926 796.333 76.131 795.511 75.1914 794.041C74.1934 792.451 73.2553 790.832 72.4078 789.094C57.9123 759.374 71.9002 722.66 103.538 707.229C135.175 691.799 172.718 703.379 187.214 733.1C195.163 749.398 194.919 768.06 186.614 784.794L196.601 800.099C199.068 803.939 199.14 808.651 196.806 812.534C195.655 814.431 193.969 815.994 191.992 816.959ZM151.611 805.946C152.42 805.477 153.376 805.308 154.329 805.436L186.713 808.111C187.576 808.209 188.028 807.766 188.27 807.351C188.482 807.025 188.728 806.312 188.199 805.532L176.627 787.737C175.629 786.147 175.559 784.178 176.41 782.577C184.454 768.046 185.094 751.564 178.167 737.363C166.098 712.617 134.587 703.063 107.863 716.097C82.1575 728.635 70.1839 757.617 80.0821 781.865C83.7286 777.936 88.1145 774.61 93.1477 772.155C113.82 762.072 138.313 769.708 147.811 789.182C150.442 794.425 151.668 800.132 151.611 805.946Z" fill="#E32652"/>
<path d="M114.927 861.073C113.369 861.833 111.667 862.144 109.85 861.918C106.307 861.495 103.407 859.201 102.218 855.85L98.9156 846.037C87.6117 843.391 78.0544 835.962 73.057 825.716C67.3582 814.032 68.1512 800.146 75.2119 788.617C79.4256 781.592 85.6837 775.87 93.2935 772.158C113.966 762.076 138.458 769.711 147.956 789.185C151.814 797.095 152.737 806.287 150.475 815.031C147.707 826.542 139.919 836.274 128.949 842.07L118.566 857.889C117.628 859.311 116.365 860.372 114.927 861.073ZM97.6173 781.176C91.7452 784.04 86.9017 788.404 83.6878 793.829C78.4145 802.483 77.7767 812.733 81.985 821.362C86.0473 829.691 93.8335 835.313 103.42 836.72C105.266 837.006 106.774 838.273 107.413 840.039L111.092 850.928L121.263 835.435C121.777 834.665 122.439 834.045 123.218 833.665C132.026 829.369 138.514 821.532 140.66 812.549C142.335 805.946 141.743 799.41 138.879 793.538C131.836 779.098 113.316 773.519 97.6173 781.176Z" fill="#E32652"/>
<path d="M154.383 136.058C153.604 136.438 152.737 136.638 151.873 136.54C149.103 136.334 147.039 133.928 147.215 131.246L147.983 119.894L142.949 122.349C139.953 123.81 136.854 123.69 134.454 122.116C132.025 120.482 130.801 117.667 131.013 114.3L131.989 100.028C132.195 97.2574 134.6 95.194 137.282 95.3695C140.053 95.5758 142.116 97.9814 141.941 100.663L141.202 112.075L146.235 109.62C149.231 108.159 152.331 108.279 154.731 109.853C157.159 111.487 158.384 114.302 158.172 117.669L157.196 131.941C157.059 133.788 155.941 135.298 154.383 136.058Z" fill="white"/>
<path d="M188.214 163.318L155.199 179.421C152.562 180.707 149.06 182.044 145.733 180.848C142.494 179.683 141.21 176.898 140.364 175.011L137.763 169.678C117.753 166.976 99.2732 154.331 91.1487 137.674C83.4626 121.915 83.3439 103.726 90.8053 87.8481C98.2667 71.9703 112.573 60.3938 130.027 56.1831C146.614 52.1725 164.437 55.8665 177.724 66.0752C203.498 85.9183 204.798 120.368 191.36 143.611L193.552 148.105C194.46 149.814 196.068 152.96 194.839 156.675C193.858 159.379 191.69 161.623 188.214 163.318ZM149.467 171.016C149.767 170.87 150.216 170.725 150.755 170.462L183.831 154.33C184.43 154.038 184.82 153.774 185.03 153.597C184.943 153.417 184.826 153.177 184.738 152.998L181.056 145.448C180.296 143.89 180.404 141.983 181.343 140.561C193.848 121.185 193.639 90.9494 171.475 73.9446C160.555 65.5481 145.886 62.5411 132.227 65.865C117.762 69.3599 105.891 78.9329 99.708 92.1101C93.5254 105.287 93.6458 120.286 100.017 133.348C108.141 150.006 126.66 158.775 141.405 160.114C143.193 160.28 144.673 161.338 145.433 162.896L149.378 170.985C149.438 170.956 149.438 170.956 149.467 171.016Z" fill="white"/>
<path d="M201.357 179.161C200.937 179.365 200.489 179.51 200.011 179.595C185.256 182.192 171.655 188.826 160.524 198.854C158.449 200.682 155.32 200.502 153.432 198.456C151.544 196.41 151.783 193.252 153.83 191.364C166.314 180.157 181.713 172.646 198.23 169.708C200.948 169.198 203.554 171.043 204.064 173.761C204.518 176.061 203.334 178.196 201.357 179.161Z" fill="white"/>
<path d="M1260.55 205.386C1225.02 188.056 1210.23 145.088 1227.56 109.556C1244.89 74.0238 1287.86 59.2289 1323.39 76.5592C1358.92 93.8894 1373.72 136.857 1356.39 172.389C1339.05 207.922 1296.09 222.717 1260.55 205.386ZM1319 85.5471C1288.45 70.6425 1251.45 83.3809 1236.55 113.94C1221.64 144.499 1234.38 181.494 1264.94 196.398C1295.5 211.303 1332.49 198.565 1347.4 168.006C1362.3 137.447 1349.56 100.452 1319 85.5471Z" fill="#E32652"/>
<path d="M1302.72 175.366C1301.94 174.986 1301.25 174.426 1300.77 173.596L1287.6 153.451C1284.33 148.445 1283.86 140.727 1286.46 135.394L1298.45 110.827C1299.65 108.37 1302.68 107.327 1305.13 108.525C1307.59 109.723 1308.63 112.754 1307.43 115.211L1295.45 139.778C1294.4 141.935 1294.65 145.987 1295.98 147.972L1309.15 168.117C1310.69 170.427 1310.01 173.505 1307.7 175.048C1306.1 176.048 1304.22 176.096 1302.72 175.366Z" fill="#E32652"/>
</svg>
