<svg width="64" height="67" viewBox="0 0 64 67" fill="none" xmlns="http://www.w3.org/2000/svg">
<path d="M40.2681 53.5529C38.3009 54.5111 36.2606 55.3196 34.166 55.9693C31.772 56.7185 29.2379 55.6135 28.1226 53.3774L22.7314 42.3382C21.2328 39.2697 22.5093 35.5675 25.5818 34.0709L33.9002 30.0191C35.4177 29.2799 36.0511 27.4427 35.311 25.9272L29.9289 14.9067C29.5086 14.046 28.5431 13.6362 27.6173 13.925C23.7273 15.1249 20.074 16.9045 16.7322 19.227C15.9531 19.7687 15.6725 20.8086 16.0929 21.6693L19.4464 28.536C19.821 29.3032 19.4947 30.2496 18.7266 30.6238C17.9585 30.9979 17.0108 30.672 16.6361 29.9049L13.2826 23.0381C12.2048 20.7838 12.8931 18.1092 14.9581 16.6865C18.5626 14.1896 22.5157 12.2641 26.705 10.9647C29.0989 10.2155 31.633 11.3204 32.7483 13.5565L38.1395 24.5957C39.6381 27.6642 38.3616 31.3664 35.2891 32.863L26.9707 36.9149C25.4532 37.654 24.8198 39.4912 25.5599 41.0068L30.942 52.0273C31.3624 52.888 32.3279 53.2978 33.2537 53.009C37.1436 51.809 40.797 50.0295 44.1387 47.707C44.9178 47.1653 45.1985 46.1253 44.7781 45.2646L41.4246 38.3979C41.05 37.6308 41.3763 36.6844 42.1444 36.3102C42.9125 35.9361 43.8602 36.2619 44.2349 37.0291L47.5884 43.8958C48.6662 46.1502 47.9779 48.8248 45.9129 50.2475C44.1294 51.4868 42.2353 52.5947 40.2681 53.5529Z" fill="white"/>
<path d="M35.1892 43.1491C34.4211 43.5232 33.4734 43.1974 33.0988 42.4302C32.7241 41.6631 33.0505 40.7167 33.8186 40.3425L49.0314 32.9324C49.8933 32.5127 50.3036 31.5484 50.0145 30.6239C48.8129 26.739 47.0311 23.0904 44.7055 19.7531C44.154 18.9563 43.1405 18.6856 42.2787 19.1054L35.4029 22.4545C34.6348 22.8287 33.6871 22.5028 33.3125 21.7356C32.9378 20.9685 33.2642 20.0221 34.0323 19.6479L40.908 16.2988C43.1654 15.2224 45.8435 15.9098 47.2681 17.9721C49.7682 21.5719 51.6963 25.5198 52.9974 29.7036C53.7476 32.0944 52.6412 34.6252 50.4021 35.739L35.1892 43.1491V43.1491Z" fill="white"/>
<path d="M26.8748 47.1994L19.9991 50.5485C17.7417 51.6249 15.0636 50.9375 13.639 48.8752C11.1388 45.2754 9.21076 41.3275 7.90964 37.1437C7.15949 34.7529 8.26591 32.2221 10.505 31.1083L25.6991 23.7074C26.4672 23.3332 27.4149 23.6591 27.7895 24.4262C28.1642 25.1933 27.8379 26.1398 27.0697 26.5139L11.8569 33.924C10.9951 34.3438 10.5847 35.308 10.8739 36.2326C12.0754 40.1175 13.8572 43.766 16.1829 47.1033C16.7343 47.9002 17.7478 48.1708 18.6097 47.751L25.4854 44.4019C26.2535 44.0278 27.2012 44.3537 27.5758 45.1208C27.9505 45.8879 27.6429 46.8252 26.8748 47.1994Z" fill="white"/>
<path d="M21.4516 22.9505C20.6834 23.3246 19.5777 22.96 19.1939 22.1741C18.8101 21.3883 19.1936 20.3214 19.9804 19.9381C20.3364 19.7647 20.8496 19.7232 21.2307 19.8387C21.6396 19.9638 22.0463 20.3215 22.229 20.6957C22.6128 21.4816 22.2385 22.5672 21.4516 22.9505Z" fill="white"/>
<path d="M40.9124 46.9394C40.1443 47.3136 39.0385 46.9489 38.6547 46.1631C38.2709 45.3772 38.6453 44.2916 39.4321 43.9083C39.7881 43.7349 40.3013 43.6934 40.6823 43.8089C41.0913 43.934 41.4979 44.2917 41.6807 44.6659C42.0549 45.4796 41.6806 46.5652 40.9124 46.9394Z" fill="white"/>
</svg>
