<svg width="214" height="214" viewBox="0 0 214 214" fill="none" xmlns="http://www.w3.org/2000/svg">
<path d="M138.383 171.276C132.092 174.34 125.566 176.926 118.867 179.004C111.211 181.4 103.106 177.866 99.539 170.714L82.2964 135.408C77.5036 125.594 81.586 113.754 91.4128 108.967L118.017 96.0083C122.871 93.6442 124.896 87.7684 122.529 82.9213L105.316 47.6751C103.972 44.9224 100.884 43.6115 97.923 44.5352C85.4817 48.3729 73.7973 54.0644 63.1095 61.4926C60.6177 63.2248 59.7203 66.5508 61.0646 69.3035L71.7901 91.2652C72.9884 93.7187 71.9447 96.7456 69.488 97.9422C67.0313 99.1389 64.0004 98.0966 62.8022 95.6432L52.0767 73.6814C48.6296 66.4713 50.8311 57.9175 57.4354 53.3672C68.9635 45.3815 81.6065 39.2232 95.005 35.0673C102.661 32.6713 110.766 36.2051 114.333 43.3568L131.576 78.663C136.368 88.4769 132.286 100.318 122.459 105.104L95.8549 118.063C91.0015 120.427 88.9756 126.303 91.3428 131.15L108.556 166.396C109.901 169.149 112.988 170.46 115.949 169.536C128.391 165.698 140.075 160.007 150.763 152.579C153.254 150.847 154.152 147.52 152.808 144.768L142.082 122.806C140.884 120.353 141.928 117.326 144.384 116.129C146.841 114.932 149.872 115.975 151.07 118.428L161.796 140.39C165.243 147.6 163.041 156.154 156.437 160.704C150.733 164.668 144.675 168.211 138.383 171.276Z" fill="white"/>
<path d="M122.14 138.001C119.683 139.198 116.652 138.156 115.454 135.702C114.256 133.249 115.299 130.222 117.756 129.025L166.411 105.326C169.167 103.983 170.48 100.9 169.555 97.9426C165.712 85.5177 160.013 73.8487 152.575 63.175C150.811 60.6266 147.57 59.7609 144.814 61.1035L122.823 71.8148C120.367 73.0115 117.336 71.9692 116.137 69.5157C114.939 67.0622 115.983 64.0353 118.44 62.8387L140.43 52.1273C147.649 48.6848 156.215 50.8832 160.771 57.4789C168.767 68.9919 174.934 81.6185 179.095 94.9993C181.494 102.646 177.956 110.74 170.794 114.302L122.14 138.001Z" fill="white"/>
<path d="M95.5475 150.955L73.5571 161.667C66.3375 165.109 57.7722 162.911 53.2159 156.315C45.2197 144.802 39.0533 132.176 34.892 118.795C32.4928 111.148 36.0314 103.054 43.1925 99.4919L91.7872 75.8218C94.2439 74.6251 97.2749 75.6674 98.4731 78.1209C99.6713 80.5744 98.6277 83.6013 96.171 84.7979L47.5163 108.497C44.76 109.84 43.4474 112.924 44.3723 115.881C48.2151 128.306 53.9139 139.975 61.3519 150.648C63.1157 153.197 66.3571 154.062 69.1134 152.72L91.1038 142.008C93.5605 140.812 96.5914 141.854 97.7896 144.308C98.9878 146.761 98.0042 149.759 95.5475 150.955Z" fill="white"/>
<path d="M78.2031 73.4011C75.7464 74.5977 72.2099 73.4314 70.9825 70.9181C69.755 68.4047 70.9814 64.9926 73.498 63.7668C74.6365 63.2122 76.2778 63.0794 77.4966 63.4488C78.8046 63.8487 80.1051 64.993 80.6896 66.1898C81.917 68.7031 80.7198 72.1752 78.2031 73.4011Z" fill="white"/>
<path d="M140.444 150.124C137.987 151.321 134.45 150.154 133.223 147.641C131.995 145.128 133.193 141.656 135.709 140.43C136.848 139.875 138.489 139.743 139.708 140.112C141.015 140.512 142.316 141.656 142.901 142.853C144.097 145.455 142.9 148.927 140.444 150.124Z" fill="white"/>
</svg>
