<svg width="62" height="67" viewBox="0 0 62 67" fill="none" xmlns="http://www.w3.org/2000/svg">
<path d="M43.8665 50.8191L32.6315 56.2988C22.4639 61.2579 16.001 59.0325 11.0419 48.8649L5.56224 37.6299C0.603169 27.4623 2.82855 20.9994 12.9962 16.0403L24.2311 10.5607C34.3987 5.60158 40.8617 7.82696 45.8207 17.9946L51.3004 29.2295C56.2594 39.3971 54.0341 45.8601 43.8665 50.8191ZM14.3661 18.849C5.7339 23.0592 4.16078 27.6279 8.37097 36.26L13.8506 47.495C18.0608 56.1271 22.6294 57.7002 31.2616 53.49L42.4965 48.0104C51.1287 43.8002 52.7018 39.2316 48.4916 30.5994L43.012 19.3645C38.8018 10.7323 34.2332 9.1592 25.601 13.3694L14.3661 18.849Z" fill="#E32652"/>
<path d="M27.3881 42.6999C27.0324 42.8734 26.6127 42.9159 26.1948 42.772L19.2583 40.3835C17.6147 39.8176 16.747 38.0387 17.313 36.3951L19.7014 29.4586C19.9796 28.6507 20.8784 28.2123 21.6863 28.4905C22.4941 28.7687 22.9325 29.6675 22.6543 30.4754L20.2659 37.4119L27.2116 39.8191C28.0194 40.0972 28.4578 40.996 28.1796 41.8039C28.0266 42.203 27.7439 42.5264 27.3881 42.6999Z" fill="#E32652"/>
<path d="M36.376 38.3153C36.0202 38.4889 35.6005 38.5313 35.1826 38.3874C34.3748 38.1092 33.9364 37.2105 34.2146 36.4026L36.5939 29.4473L29.6482 27.0401C28.8403 26.762 28.4019 25.8632 28.6801 25.0553C28.9583 24.2474 29.8571 23.8091 30.665 24.0872L37.6015 26.4757C39.2451 27.0416 40.1127 28.8205 39.5468 30.4641L37.1583 37.4006C37.0332 37.8094 36.7317 38.1418 36.376 38.3153Z" fill="#E32652"/>
</svg>
