<svg width="214" height="215" viewBox="0 0 214 215" fill="none" xmlns="http://www.w3.org/2000/svg">
<path d="M138.39 171.717C131.619 175.019 124.183 176.198 117.547 174.91L82.4004 168.242C73.0854 166.481 62.5798 158.476 58.4299 149.968L36.6867 105.387C32.1861 96.1597 34.1641 83.0305 41.2743 75.5572L65.7092 49.7691C70.5599 44.6589 79.9074 40.0998 86.9207 39.4236L122.346 36.0162C132.612 35.0142 144.176 41.5387 148.676 50.7663L158.701 71.3187C159.899 73.7754 158.855 76.8063 156.398 78.0045C153.942 79.2027 150.911 78.1591 149.713 75.7024L139.688 55.15C137.029 49.6973 129.379 45.4178 123.261 45.9538L87.8964 49.332C83.2111 49.7628 76.2005 53.1821 72.9764 56.609L48.5708 82.457C44.3529 86.8878 43.0152 95.5509 45.7038 101.064L67.4178 145.584C70.1942 151.276 78.0957 157.287 84.2262 158.451L119.373 165.119C123.867 165.968 129.153 165.096 133.946 162.758C136.403 161.56 139.434 162.603 140.632 165.06C141.83 167.517 140.846 170.518 138.39 171.717Z" fill="white"/>
<path d="M156.512 148.042C140.813 155.699 121.826 149.161 114.169 133.462C106.512 117.763 113.05 98.7751 128.749 91.1182C144.448 83.4614 163.436 89.9994 171.092 105.698C178.749 121.397 172.211 140.385 156.512 148.042ZM133.162 100.166C122.436 105.397 117.955 118.412 123.186 129.138C128.417 139.864 141.432 144.345 152.158 139.114C162.884 133.883 167.365 120.868 162.134 110.142C156.903 99.4163 143.887 94.9349 133.162 100.166Z" fill="white"/>
<path d="M190.127 140.92C189.707 141.125 189.318 141.24 188.87 141.385C188.481 141.5 188.063 141.556 187.616 141.551C187.198 141.607 186.751 141.602 186.274 141.538C185.858 141.445 185.441 141.351 185.025 141.257C183.391 140.645 181.972 139.409 181.212 137.851C180.832 137.072 180.632 136.205 180.581 135.34C180.53 134.475 180.628 133.611 180.875 132.749C182.011 129.451 186.085 127.463 189.383 128.599C190.215 128.935 190.956 129.39 191.606 129.963C192.256 130.535 192.816 131.227 193.196 132.006C193.956 133.564 194.057 135.443 193.533 137.108C192.921 138.741 191.684 140.16 190.127 140.92Z" fill="white"/>
</svg>
