<svg width="66" height="68" viewBox="0 0 66 68" fill="none" xmlns="http://www.w3.org/2000/svg">
<path d="M42.2463 54.1092C40.1304 55.1412 37.8067 55.5096 35.7329 55.1072L24.7496 53.0236C21.8387 52.4731 18.5557 49.9716 17.2589 47.3127L10.4641 33.3814C9.05766 30.4977 9.6758 26.3948 11.8977 24.0595L19.5336 16.0007C21.0495 14.4037 23.9706 12.979 26.1622 12.7677L37.2325 11.7029C40.4408 11.3898 44.0545 13.4286 45.4609 16.3123L48.5934 22.7349C48.9679 23.5026 48.6417 24.4498 47.874 24.8242C47.1063 25.1987 46.1591 24.8725 45.7847 24.1048L42.6522 17.6822C41.8211 15.9782 39.4304 14.6409 37.5187 14.8084L26.4671 15.8641C25.003 15.9987 22.8122 17.0672 21.8046 18.1381L14.1779 26.2156C12.8598 27.6002 12.4418 30.3075 13.282 32.0302L20.0676 45.9428C20.9352 47.7216 23.4044 49.6001 25.3202 49.9638L36.3035 52.0474C37.7078 52.3128 39.3597 52.0402 40.8577 51.3096C41.6254 50.9352 42.5726 51.2613 42.947 52.029C43.3214 52.7968 43.014 53.7348 42.2463 54.1092Z" fill="white"/>
<path d="M47.9103 46.7103C43.0043 49.1031 37.0707 47.06 34.6779 42.1541C32.2851 37.2482 34.3282 31.3145 39.2342 28.9217C44.1401 26.5289 50.0737 28.5721 52.4665 33.478C54.8593 38.3839 52.8162 44.3176 47.9103 46.7103ZM40.6132 31.7492C37.2614 33.3839 35.861 37.4511 37.4958 40.8029C39.1305 44.1546 43.1977 45.5551 46.5495 43.9203C49.9012 42.2856 51.3017 38.2184 49.6669 34.8666C48.0322 31.5149 43.965 30.1144 40.6132 31.7492Z" fill="white"/>
<path d="M58.4142 44.4851C58.2831 44.549 58.1616 44.5851 58.0214 44.6303C57.8999 44.6663 57.7693 44.6837 57.6296 44.6823C57.499 44.6996 57.3592 44.6983 57.2103 44.6782C57.0802 44.6489 56.95 44.6197 56.8199 44.5905C56.3093 44.3991 55.8659 44.0127 55.6284 43.5258C55.5097 43.2824 55.4471 43.0116 55.4312 42.7412C55.4152 42.4709 55.4458 42.201 55.523 41.9315C55.8779 40.9008 57.1512 40.2798 58.1819 40.6347C58.4418 40.7397 58.6733 40.8818 58.8766 41.0608C59.0798 41.2398 59.2547 41.4559 59.3734 41.6993C59.6108 42.1861 59.6423 42.7734 59.4788 43.2936C59.2874 43.8042 58.901 44.2476 58.4142 44.4851Z" fill="white"/>
</svg>
