<svg width="56" height="67" viewBox="0 0 56 67" fill="none" xmlns="http://www.w3.org/2000/svg">
<path d="M28.2676 38.26C27.8931 38.0773 27.6104 37.754 27.4761 37.364L25.1548 30.6225C24.8766 29.8146 25.315 28.9158 26.1229 28.6376C26.9307 28.3595 27.8295 28.7978 28.1077 29.6057L29.9206 34.8708L41.8994 30.7462C42.7073 30.468 43.6061 30.9064 43.8842 31.7142C44.1624 32.5221 43.724 33.4209 42.9162 33.6991L29.4609 38.3321C29.0709 38.4664 28.6421 38.4427 28.2676 38.26Z" fill="white"/>
<path d="M23.6115 53.5582C22.4318 52.9828 21.4439 52.0142 20.91 50.7803L19.1935 46.7907C19.0217 46.3825 18.4006 45.755 18.0074 45.5632L14.7867 43.9924C12.0154 42.6407 10.8644 39.2978 12.216 36.5265L13.7777 33.3246C13.9695 32.9314 14.0635 32.0732 13.9475 31.6458L12.8718 27.4356C12.2222 24.8704 13.6195 22.0055 16.0408 20.9381L20.0208 19.1937C20.429 19.022 21.0474 18.4196 21.2392 18.0264L22.81 14.8057C24.1616 12.0344 27.5045 10.8833 30.2758 12.235L33.5152 13.815C33.9084 14.0067 34.7944 14.0912 35.2128 13.9939L39.4133 12.8903C42.0155 12.2124 44.8804 13.6097 45.9483 16.0776L47.6648 20.0671C47.8365 20.4754 48.4577 21.1029 48.8509 21.2947L52.0341 22.8472C54.8054 24.1989 55.9565 27.5418 54.6048 30.3131L53.0523 33.4963C52.8605 33.8895 52.776 34.7755 52.8921 35.203L53.9957 39.4035C54.6736 42.0057 53.2762 44.8706 50.8083 45.9385L46.8188 47.655C46.4105 47.8267 45.7643 48.4387 45.5726 48.832L44.02 52.0152C42.6683 54.7865 39.3254 55.9375 36.5542 54.5859L33.3709 53.0333C32.9777 52.8415 32.0917 52.7571 31.6734 52.8544L27.4728 53.958C26.1626 54.3157 24.7911 54.1335 23.6115 53.5582ZM28.9059 15.0437C27.6888 14.4501 26.2123 14.9585 25.6187 16.1756L24.057 19.3775C23.5365 20.4449 22.3642 21.5652 21.2787 22.0325L17.2987 23.7768C16.2689 24.2249 15.6205 25.5543 15.9014 26.6417L16.9771 30.8519C17.2681 32.0137 17.1161 33.6085 16.5956 34.6758L15.0339 37.8777C14.4403 39.0948 14.9486 40.5713 16.1658 41.1649L19.4052 42.7449C20.4912 43.2746 21.6115 44.4468 22.0884 45.5602L23.8049 49.5498C24.2529 50.5796 25.6011 51.2372 26.6885 50.9562L30.8891 49.8526C32.0509 49.5616 33.6735 49.704 34.7596 50.2337L37.9428 51.7863C39.1599 52.3799 40.6364 51.8715 41.23 50.6544L42.7825 47.4712C43.3122 46.3851 44.4845 45.2648 45.5979 44.788L49.5874 43.0715C50.6173 42.6234 51.2748 41.2752 50.9939 40.1879L49.8903 35.9873C49.5806 34.8163 49.7417 33.2028 50.2714 32.1168L51.8148 28.9523C52.4084 27.7352 51.9001 26.2587 50.6829 25.6651L47.4997 24.1125C46.4137 23.5828 45.2933 22.4106 44.8165 21.2972L43.1 17.3076C42.6519 16.2778 41.3037 15.6203 40.2164 15.9012L36.0067 17.0235C34.8449 17.3145 33.2126 17.1442 32.1453 16.6237L28.9059 15.0437Z" fill="white"/>
</svg>
