<svg width="214" height="214" viewBox="0 0 214 214" fill="none" xmlns="http://www.w3.org/2000/svg">
<path d="M90.4563 122.432C89.2579 121.847 88.3533 120.813 87.9235 119.565L80.4954 97.9917C79.6052 95.4065 81.008 92.5304 83.5932 91.6403C86.1784 90.7501 89.0545 92.1529 89.9447 94.7381L95.746 111.586L134.078 98.3876C136.663 97.4974 139.539 98.9002 140.43 101.485C141.32 104.071 139.917 106.947 137.332 107.837L94.275 122.662C93.027 123.092 91.6547 123.016 90.4563 122.432Z" fill="white"/>
<path d="M75.5563 171.386C71.7813 169.545 68.6201 166.446 66.9115 162.497L61.4188 149.731C60.8692 148.424 58.8816 146.416 57.6233 145.802L47.3171 140.776C38.449 136.451 34.7656 125.753 39.0909 116.885L44.0883 106.639C44.702 105.381 45.0029 102.635 44.6316 101.267L41.1892 87.7941C39.1106 79.5855 43.582 70.4178 51.3302 67.002L64.0661 61.4202C65.3725 60.8706 67.3512 58.9429 67.9649 57.6846L72.9916 47.3784C77.3168 38.5103 88.0141 34.8269 96.8822 39.1522L107.248 44.208C108.507 44.8218 111.342 45.092 112.68 44.7806L126.122 41.249C134.449 39.0798 143.617 43.5512 147.034 51.4485L152.527 64.2151C153.077 65.5215 155.064 67.5294 156.322 68.1431L166.509 73.1113C175.377 77.4366 179.06 88.1339 174.735 97.002L169.767 107.188C169.153 108.447 168.883 111.282 169.254 112.65L172.786 126.092C174.955 134.419 170.484 143.586 162.586 147.003L149.82 152.496C148.513 153.046 146.446 155.004 145.832 156.262L140.864 166.449C136.538 175.317 125.841 179 116.973 174.675L106.787 169.707C105.528 169.093 102.693 168.823 101.354 169.134L87.9126 172.666C83.7199 173.81 79.3312 173.228 75.5563 171.386ZM92.4985 48.1401C88.6038 46.2405 83.8791 47.8673 81.9795 51.7621L76.9821 62.0083C75.3163 65.4238 71.565 69.0088 68.0913 70.5041L55.3555 76.0859C52.0601 77.5198 49.9851 81.7741 50.8841 85.2536L54.3265 98.7262C55.2576 102.444 54.7713 107.547 53.1055 110.963L48.108 121.209C46.2084 125.104 47.8352 129.828 51.73 131.728L62.0961 136.784C65.5714 138.479 69.1565 142.23 70.6824 145.793L76.1752 158.56C77.609 161.855 81.9232 163.959 85.4028 163.06L98.8446 159.529C102.562 158.597 107.755 159.053 111.23 160.748L121.417 165.716C125.311 167.616 130.036 165.989 131.936 162.094L136.904 151.908C138.599 148.433 142.35 144.848 145.913 143.322L158.679 137.829C161.975 136.395 164.079 132.081 163.18 128.601L159.648 115.159C158.657 111.412 159.173 106.249 160.868 102.774L165.807 92.6475C167.707 88.7527 166.08 84.0281 162.185 82.1285L151.999 77.1603C148.523 75.4652 144.938 71.714 143.412 68.1512L137.92 55.3846C136.486 52.0892 132.172 49.985 128.692 50.884L115.221 54.4755C111.503 55.4066 106.28 54.8618 102.865 53.196L92.4985 48.1401Z" fill="white"/>
</svg>
