<svg width="241" height="241" viewBox="0 0 241 241" fill="none" xmlns="http://www.w3.org/2000/svg">
<path d="M116.065 129.104C115.188 128.677 114.411 128.047 113.832 127.181L71.1099 63.7035C69.441 61.1371 70.0771 57.6089 72.6763 55.8726C75.2755 54.1363 78.7708 54.8397 80.5071 57.4389L121.391 118.184L193.994 113.04C197.111 112.808 199.784 115.197 200.049 118.247C200.281 121.364 197.892 124.037 194.843 124.302L119.022 129.712C117.949 129.69 116.941 129.532 116.065 129.104Z" fill="white"/>
<path d="M86.2824 190.182C83.5186 188.834 82.3445 185.424 83.6925 182.66L113.513 121.52C114.861 118.756 118.27 117.582 121.034 118.93C123.798 120.278 124.972 123.687 123.624 126.451L93.8039 187.592C92.4559 190.356 89.0462 191.53 86.2824 190.182Z" fill="white"/>
<path d="M85.0044 192.812C79.0724 189.919 73.8324 185.778 70.4305 180.948L44.1985 143.37C37.0544 133.21 35.7825 116.485 41.2402 105.295L59.8162 67.2087C65.2739 56.0187 79.2038 46.7913 91.6413 46.0984L137.37 43.7019C149.104 43.083 163.529 50.1189 170.266 59.7463L196.498 97.3237C203.642 107.484 204.914 124.209 199.456 135.399L180.88 173.485C175.422 184.675 161.492 193.903 149.055 194.596L103.326 196.992C97.4258 197.285 90.9365 195.706 85.0044 192.812ZM150.76 57.9932C146.513 55.9219 141.906 54.7598 137.984 54.9326L92.2223 57.3965C84.0084 57.8129 73.5442 64.7253 69.9277 72.1404L51.3517 110.227C47.7351 117.642 48.7305 130.143 53.4264 136.94L79.6584 174.517C84.1159 180.947 94.9014 186.207 102.712 185.761L148.474 183.298C156.721 182.814 167.152 175.969 170.801 168.486L189.377 130.4C192.994 122.985 191.999 110.483 187.303 103.687L161.071 66.1094C158.759 62.9792 155.007 60.0645 150.76 57.9932Z" fill="white"/>
</svg>
