<svg width="241" height="241" viewBox="0 0 241 241" fill="none" xmlns="http://www.w3.org/2000/svg">
<path d="M62.4247 148.421L45.2354 140.038C32.832 133.988 29.1716 123.357 35.2211 110.954L73.688 32.0851C79.7375 19.6817 90.3682 16.0213 102.772 22.0708L131.758 36.2082C144.161 42.2577 147.821 52.8882 141.771 65.2916L135.689 77.7622C134.341 80.526 130.931 81.7001 128.168 80.3521C125.404 79.0041 124.23 75.5943 125.578 72.8305L131.66 60.3599C135.014 53.4842 133.702 49.6732 126.826 46.3196L97.8399 32.1822C90.9641 28.8287 87.153 30.141 83.7994 37.0167L45.3325 115.886C41.979 122.761 43.2913 126.573 50.1671 129.926L67.3564 138.31C70.1202 139.658 71.2943 143.068 69.9463 145.831C68.5983 148.595 65.1885 149.769 62.4247 148.421Z" fill="white"/>
<path d="M104.949 202.54L65.5815 183.339C52.0322 176.731 48.0266 165.098 54.635 151.548L91.3268 76.3189C97.9353 62.7696 109.568 58.764 123.118 65.3724L162.485 84.5732C176.034 91.1816 179.973 102.782 173.364 116.331L136.672 191.56C130.064 205.11 118.498 209.148 104.949 202.54ZM118.186 75.4838C110.097 71.5385 105.384 73.1614 101.438 81.2506L64.7465 156.48C60.8011 164.569 62.4241 169.282 70.5132 173.228L109.881 192.428C117.902 196.341 122.616 194.718 126.561 186.629L163.253 111.4C167.198 103.31 165.575 98.5971 157.553 94.6846L118.186 75.4838Z" fill="white"/>
<path d="M151.057 191.65L134.339 183.497C131.576 182.149 130.402 178.739 131.75 175.975C133.098 173.211 136.507 172.037 139.271 173.385L155.989 181.539C162.864 184.892 166.676 183.58 170.029 176.704L208.496 97.8355C211.85 90.9597 210.537 87.1486 203.661 83.795L174.675 69.6576C167.8 66.3041 163.989 67.6166 160.635 74.4923L154.553 86.9629C153.205 89.7267 149.795 90.9008 147.032 89.5528C144.268 88.2048 143.094 84.795 144.442 82.0313L150.524 69.5607C156.573 57.1573 167.204 53.4966 179.607 59.5462L208.593 73.6836C220.997 79.7331 224.657 90.3638 218.607 102.767L180.141 181.636C174.091 194.039 163.46 197.7 151.057 191.65Z" fill="white"/>
<path d="M134.648 125.235L107.684 112.084C104.921 110.736 103.746 107.326 105.094 104.563C106.442 101.799 109.852 100.625 112.616 101.973L139.58 115.124C142.344 116.472 143.518 119.882 142.17 122.645C140.822 125.409 137.412 126.583 134.648 125.235Z" fill="white"/>
<path d="M124.785 145.458L97.8213 132.307C95.0575 130.959 93.8834 127.549 95.2314 124.785C96.5794 122.021 99.9892 120.847 102.753 122.195L129.717 135.346C132.481 136.694 133.655 140.104 132.307 142.868C130.959 145.632 127.549 146.806 124.785 145.458Z" fill="white"/>
<path d="M85.0009 192.81C82.2371 191.462 81.0631 188.052 82.411 185.288L92.2744 165.065C93.6224 162.302 97.0322 161.128 99.796 162.476C102.56 163.824 103.734 167.233 102.386 169.997L92.5225 190.22C91.1745 192.984 87.7647 194.158 85.0009 192.81Z" fill="white"/>
</svg>
