<svg width="241" height="241" viewBox="0 0 241 241" fill="none" xmlns="http://www.w3.org/2000/svg">
<path d="M72.8324 91.3646C70.0686 92.7125 66.6588 91.5385 65.3108 88.7747L55.4475 68.5518C54.0995 65.788 55.2736 62.3782 58.0373 61.0303C60.8011 59.6823 64.2109 60.8563 65.5589 63.6201L75.4223 83.843C76.7702 86.6068 75.5962 90.0166 72.8324 91.3646Z" fill="#E32652"/>
<path d="M126.76 65.0618C123.996 66.4098 120.586 65.2357 119.238 62.4719L109.375 42.2491C108.027 39.4853 109.201 36.0755 111.965 34.7275C114.729 33.3795 118.138 34.5536 119.486 37.3174L129.35 57.5403C130.698 60.3041 129.524 63.7138 126.76 65.0618Z" fill="#E32652"/>
<path d="M104.971 148.703C104.094 149.13 103.119 149.355 102.146 149.413C101.105 149.503 100.201 149.36 99.2311 149.082C97.393 148.393 95.8296 147.07 94.9419 145.249C94.5145 144.373 94.2893 143.398 94.2318 142.425C94.1743 141.452 94.2846 140.48 94.5625 139.51C94.9407 138.575 95.3846 137.774 96.0965 137.009C98.0301 134.815 101.327 133.874 104.135 134.841C105.973 135.53 107.569 136.921 108.424 138.674C108.621 139.078 108.784 139.583 108.947 140.088C109.076 140.525 109.139 140.995 109.134 141.499C109.196 141.969 109.191 142.472 109.119 143.008C109.081 143.443 108.908 143.945 108.803 144.413C108.114 146.251 106.723 147.848 104.971 148.703Z" fill="#E32652"/>
<path d="M128.564 137.195C127.688 137.623 126.713 137.848 125.739 137.906C124.699 137.996 123.794 137.853 122.824 137.575C120.986 136.886 119.423 135.562 118.535 133.742C118.108 132.866 117.883 131.891 117.825 130.918C117.768 129.944 117.878 128.973 118.156 128.003C118.534 127.067 118.978 126.267 119.69 125.502C121.59 123.24 124.92 122.367 127.728 123.334C129.566 124.023 131.162 125.414 132.017 127.167C132.214 127.571 132.377 128.076 132.54 128.581C132.67 129.018 132.732 129.488 132.727 129.991C132.79 130.462 132.785 130.965 132.712 131.501C132.674 131.936 132.502 132.438 132.396 132.906C131.707 134.744 130.317 136.341 128.564 137.195Z" fill="#E32652"/>
<path d="M152.157 125.689C151.281 126.116 150.306 126.341 149.333 126.399C148.292 126.489 147.388 126.346 146.418 126.068C145.984 125.862 145.55 125.657 145.116 125.451C144.649 125.179 144.249 124.873 143.917 124.534C143.518 124.228 143.186 123.89 142.921 123.518C142.623 123.079 142.326 122.64 142.129 122.235C141.274 120.483 141.16 118.369 141.749 116.496C142.127 115.561 142.571 114.76 143.283 113.995C145.251 111.7 148.513 110.86 151.321 111.827C153.159 112.516 154.756 113.907 155.61 115.66C155.808 116.064 155.97 116.569 156.133 117.074C156.263 117.511 156.325 117.981 156.321 118.485C156.383 118.955 156.378 119.458 156.306 119.994C156.268 120.429 156.095 120.931 155.99 121.399C155.301 123.237 153.91 124.834 152.157 125.689Z" fill="#E32652"/>
<path d="M116.479 172.298C115.603 172.726 114.628 172.951 113.654 173.008C112.681 173.066 111.709 172.956 110.739 172.678C108.901 171.989 107.305 170.598 106.45 168.845C106.023 167.969 105.798 166.994 105.74 166.02C105.65 164.98 105.76 164.008 106.071 163.106C107.349 159.395 111.932 157.159 115.643 158.437C117.481 159.126 119.077 160.517 119.932 162.27C120.787 164.022 120.9 166.136 120.312 168.009C119.623 169.847 118.232 171.443 116.479 172.298Z" fill="#E32652"/>
<path d="M140.072 160.791C138.32 161.646 136.205 161.76 134.333 161.171C132.495 160.482 130.898 159.091 130.043 157.338C129.616 156.462 129.391 155.487 129.333 154.514C129.243 153.473 129.353 152.501 129.664 151.599C130.942 147.888 135.526 145.652 139.236 146.93C140.139 147.241 140.972 147.752 141.737 148.464C142.468 149.109 143.098 149.886 143.525 150.763C144.38 152.515 144.493 154.63 143.905 156.502C143.216 158.34 141.825 159.937 140.072 160.791Z" fill="#E32652"/>
<path d="M163.665 149.282C161.912 150.137 159.798 150.25 157.925 149.662C157.023 149.351 156.189 148.839 155.425 148.128C154.693 147.483 154.063 146.705 153.636 145.829C153.209 144.953 152.983 143.978 152.926 143.004C152.835 141.964 152.946 140.992 153.257 140.09C154.051 137.783 156.048 135.891 158.436 135.31C158.94 135.148 159.411 135.085 159.914 135.09C160.384 135.028 160.887 135.033 161.423 135.105C161.859 135.143 162.36 135.316 162.829 135.421C164.667 136.11 166.263 137.501 167.118 139.253C167.973 141.006 168.086 143.12 167.497 144.993C166.808 146.831 165.417 148.427 163.665 149.282Z" fill="#E32652"/>
<path d="M170.541 77.8363L55.9444 133.729C53.1806 135.077 49.7709 133.903 48.4229 131.139C47.0749 128.375 48.249 124.965 51.0127 123.617L165.609 67.7248C168.373 66.3769 171.783 67.5509 173.131 70.3147C174.479 73.0785 173.304 76.4883 170.541 77.8363Z" fill="#E32652"/>
<path d="M182.652 179.658L128.725 205.96C104.12 217.961 83.0598 210.709 71.0594 186.105L43.1133 128.806C31.1128 104.202 38.3645 83.1416 62.969 71.1411L116.897 44.8389C141.501 32.8385 162.561 40.0901 174.562 64.6946L202.508 121.993C214.508 146.597 207.257 167.658 182.652 179.658ZM67.9007 81.2526C48.6215 90.6556 43.8216 104.596 53.2247 123.875L81.1708 181.173C90.5739 200.452 104.514 205.252 123.793 195.849L177.721 169.547C197 160.143 201.8 146.204 192.397 126.924L164.45 69.6263C155.047 50.3472 141.107 45.5472 121.828 54.9503L67.9007 81.2526Z" fill="#E32652"/>
</svg>
