<svg width="241" height="241" viewBox="0 0 241 241" fill="none" xmlns="http://www.w3.org/2000/svg">
<path d="M175.911 182.946L135.465 202.673C98.8615 220.526 75.5948 212.514 57.7422 175.911L38.0155 135.465C20.1628 98.8617 28.1742 75.595 64.7776 57.7423L105.223 38.0156C141.827 20.163 165.093 28.1743 182.946 64.7777L202.673 105.223C220.525 141.827 212.514 165.094 175.911 182.946ZM69.7092 67.8538C38.6334 83.0104 32.9702 99.4576 48.1269 130.533L67.8536 170.979C83.0103 202.055 99.4574 207.718 130.533 192.561L170.979 172.835C202.055 157.678 207.718 141.231 192.561 110.155L172.835 69.7094C157.678 38.6336 141.231 32.9704 110.155 48.1271L69.7092 67.8538Z" fill="white"/>
<path d="M139.005 98.7258C130.646 102.803 120.517 99.315 116.44 90.9562C112.364 82.5974 115.851 72.4684 124.21 68.3915C132.569 64.3147 142.698 67.8024 146.775 76.1612C150.852 84.52 147.364 94.649 139.005 98.7258ZM129.142 78.503C126.378 79.851 125.204 83.2607 126.552 86.0245C127.9 88.7883 131.31 89.9624 134.073 88.6144C136.837 87.2664 138.011 83.8567 136.663 81.0929C135.315 78.3291 131.906 77.155 129.142 78.503Z" fill="white"/>
<path d="M91.8216 121.74C83.4628 125.816 73.3337 122.329 69.2569 113.97C65.18 105.611 68.6677 95.4821 77.0265 91.4052C85.3853 87.3284 95.5143 90.8161 99.5912 99.1749C103.668 107.534 100.18 117.663 91.8216 121.74ZM81.9582 101.517C79.1944 102.865 78.0203 106.274 79.3683 109.038C80.7163 111.802 84.1261 112.976 86.8899 111.628C89.6537 110.28 90.8277 106.87 89.4798 104.107C88.1318 101.343 84.722 100.169 81.9582 101.517Z" fill="white"/>
<path d="M144.837 170.563C125.289 180.098 101.688 171.915 92.1866 152.434C89.1947 146.3 91.75 138.879 97.8843 135.887L146.419 112.215C152.553 109.223 159.975 111.778 162.967 117.912C172.468 137.394 164.386 161.029 144.837 170.563ZM102.816 145.998C102.277 146.261 102.035 146.963 102.298 147.502C109.104 161.456 125.952 167.258 139.906 160.452C153.86 153.646 159.661 136.798 152.855 122.844C152.592 122.305 151.89 122.063 151.351 122.326L102.816 145.998Z" fill="white"/>
</svg>
