<svg width="241" height="241" viewBox="0 0 241 241" fill="none" xmlns="http://www.w3.org/2000/svg">
<path d="M109.502 215.336C106.739 216.684 103.329 215.51 101.981 212.746L36.2251 77.9268C34.8771 75.163 36.0512 71.7532 38.815 70.4053C41.5788 69.0573 44.9886 70.2313 46.3365 72.9951L112.092 207.814C113.44 210.578 112.266 213.988 109.502 215.336Z" fill="#E32652"/>
<path d="M165.274 138.067L89.7758 174.891C87.012 176.239 83.6022 175.064 82.2542 172.301C80.9062 169.537 82.0803 166.127 84.8441 164.779L160.343 127.956C167.69 124.372 170.175 120.741 170.027 118.727C169.879 116.713 167.027 113.431 159.237 110.805L147.203 106.661C142.486 105.373 138.327 101.978 135.757 97.2232C133.056 92.1987 132.613 86.1567 134.512 80.6409L138.656 68.6064C141.211 61.1851 140.789 56.3844 139.193 54.9934C137.596 53.6024 132.899 53.7238 125.821 57.1759L50.3224 93.9991C47.4912 95.38 44.1488 94.173 42.8008 91.4092C41.4528 88.6454 42.6269 85.2357 45.3907 83.8877L120.889 47.0645C135.652 39.8643 143.363 43.6971 146.688 46.581C149.947 49.4978 154.706 56.6893 149.319 72.3342L145.175 84.3686C144.312 86.8758 144.519 89.6955 145.737 92.0219C146.791 94.0113 148.488 95.4368 150.528 96.0272L162.931 100.242C178.275 105.525 181.011 113.703 181.337 118.134C181.529 122.463 179.768 130.999 165.274 138.067Z" fill="#E32652"/>
</svg>
