<svg width="241" height="241" viewBox="0 0 241 241" fill="none" xmlns="http://www.w3.org/2000/svg">
<path d="M93.7836 158.877C92.6377 158.318 91.6577 157.59 90.709 156.626C87.692 153.402 86.942 148.781 88.8818 144.804L99.7315 122.559L93.1253 119.337C89.3504 117.495 87.0994 113.727 87.1929 109.601C87.3192 105.407 89.8 101.86 93.675 100.245L138.304 81.6251C142.38 79.9413 146.918 80.9028 149.935 84.1267C152.952 87.3506 153.702 91.9721 151.762 95.9492L140.912 118.194L147.586 121.449C151.361 123.29 153.612 127.059 153.518 131.185C153.392 135.379 150.911 138.926 147.036 140.54L102.407 159.161C99.5331 160.262 96.4126 160.159 93.7836 158.877ZM99.54 109.948L109.719 114.913C112.483 116.261 113.657 119.671 112.309 122.435L99.8809 147.915L141.137 130.737L130.958 125.773C128.194 124.425 127.02 121.015 128.368 118.251L140.796 92.7702L99.54 109.948Z" fill="#E32652"/>
<path d="M84.7896 192.707C44.8832 173.243 28.1715 124.872 47.668 84.8979C67.1646 44.924 115.571 28.3126 155.477 47.7763C195.383 67.24 212.095 115.611 192.599 155.585C173.102 195.559 124.764 212.203 84.7896 192.707ZM150.545 57.8877C116.166 41.12 74.5472 55.4507 57.7795 89.8296C41.0118 124.208 55.3424 165.828 89.7213 182.595C124.1 199.363 165.719 185.032 182.487 150.654C199.255 116.275 184.924 74.6554 150.545 57.8877Z" fill="#E32652"/>
</svg>
