<svg width="241" height="241" viewBox="0 0 241 241" fill="none" xmlns="http://www.w3.org/2000/svg">
<path d="M69.4041 131.047C68.1233 130.422 67.0727 129.325 66.5547 127.821C65.5533 124.913 67.1314 121.677 70.0397 120.676L100.627 110.144C103.536 109.142 106.771 110.72 107.773 113.629C108.774 116.537 107.196 119.773 104.288 120.774L73.7001 131.306C72.2287 131.757 70.6849 131.671 69.4041 131.047Z" fill="white"/>
<path d="M90.0499 141.368C88.7691 140.744 87.7185 139.647 87.2005 138.143L76.6684 107.555C75.6669 104.647 77.2451 101.411 80.1534 100.41C83.0617 99.4083 86.2974 100.986 87.2988 103.895L97.831 134.482C98.8324 137.391 97.2543 140.626 94.3459 141.628C92.8416 142.146 91.3307 141.993 90.0499 141.368Z" fill="white"/>
<path d="M120.87 145.635C117.162 143.826 115.541 139.281 117.349 135.573C119.157 131.865 123.603 130.279 127.31 132.087L127.445 132.153C131.153 133.961 132.707 138.474 130.898 142.181C129.09 145.889 124.644 147.476 120.87 145.635Z" fill="white"/>
<path d="M147.412 158.581C143.705 156.773 142.084 152.227 143.892 148.519C145.7 144.812 150.146 143.225 153.853 145.033L153.988 145.099C157.696 146.907 159.25 151.42 157.441 155.128C155.633 158.835 151.12 160.389 147.412 158.581Z" fill="white"/>
<path d="M127.597 165.355C123.89 163.546 122.303 159.101 124.111 155.393L124.177 155.259C125.985 151.551 130.498 149.997 134.206 151.805C137.913 153.614 139.467 158.127 137.659 161.834C135.851 165.542 131.372 167.196 127.597 165.355Z" fill="white"/>
<path d="M140.55 138.795C136.843 136.987 135.256 132.541 137.064 128.834L137.13 128.699C138.938 124.991 143.451 123.438 147.159 125.246C150.866 127.054 152.42 131.567 150.612 135.275C148.804 138.982 144.325 140.636 140.55 138.795Z" fill="white"/>
<path d="M105.222 202.674L64.7765 182.947C28.1731 165.094 20.1618 141.828 38.0144 105.224L44.59 91.7424C62.4427 55.139 85.7093 47.1277 122.313 64.9803L162.758 84.707C199.362 102.56 207.373 125.826 189.521 162.43L182.945 175.912C165.092 212.515 141.826 220.526 105.222 202.674ZM117.381 75.0918C86.3052 59.9351 69.8581 65.5983 54.7014 96.6741L48.1259 110.156C32.9692 141.232 38.6324 157.679 69.7082 172.836L110.154 192.562C141.23 207.719 157.677 202.056 172.834 170.98L179.409 157.498C194.566 126.422 188.903 109.975 157.827 94.8185L117.381 75.0918Z" fill="white"/>
<path d="M144.267 88.2046L137.526 84.9168C131.055 81.7605 128.327 73.8378 131.483 67.3665C134.64 60.8952 142.495 58.1343 148.966 61.2905C150.045 61.8166 151.148 61.4367 151.676 60.5259L155.064 53.7504C156.479 51.0195 159.789 49.8799 162.552 51.2279L162.62 51.2608C165.351 52.6762 166.525 56.086 165.109 58.8169L161.721 65.5924C158.53 71.9634 150.641 74.624 144.237 71.5006C143.158 70.9746 142.122 71.3873 141.662 72.331C141.202 73.2748 141.582 74.3779 142.525 74.8382L149.266 78.126C152.03 79.474 153.204 82.8838 151.856 85.6475C150.508 88.4113 147.031 89.5525 144.267 88.2046Z" fill="white"/>
</svg>
