<svg width="241" height="241" viewBox="0 0 241 241" fill="none" xmlns="http://www.w3.org/2000/svg">
<path d="M125.602 165.342L100.054 177.803C74.4384 190.296 62.805 186.29 50.3115 160.675L30.5848 120.229C18.0912 94.6135 22.0969 82.9801 47.7125 70.4865L118.695 35.8662C144.31 23.3726 155.944 27.3783 168.437 52.9939C169.785 55.7577 168.611 59.1675 165.847 60.5155C163.084 61.8635 159.674 60.6894 158.326 57.9256C148.66 38.1072 143.445 36.3115 123.626 45.9776L52.6442 80.598C32.8257 90.2641 31.0301 95.479 40.6962 115.297L60.4229 155.743C70.089 175.562 75.3039 177.357 95.1223 167.691L120.671 155.23C123.434 153.882 126.844 155.057 128.192 157.82C129.54 160.584 128.366 163.994 125.602 165.342Z" fill="#E32652"/>
<path d="M140.463 195.812C137.699 197.16 134.29 195.986 132.942 193.222L118.048 162.686C116.7 159.922 117.874 156.512 120.638 155.164C123.402 153.816 126.811 154.99 128.159 157.754L143.053 188.29C144.434 191.122 143.227 194.464 140.463 195.812Z" fill="#E32652"/>
<path d="M112.454 138.38L58.5265 164.683C55.7627 166.031 52.3529 164.857 51.0049 162.093C49.6569 159.329 50.831 155.919 53.5948 154.571L107.522 128.269C110.286 126.921 113.696 128.095 115.044 130.859C116.392 133.623 115.218 137.032 112.454 138.38Z" fill="#E32652"/>
<path d="M140.455 195.82L118.48 206.538C115.716 207.886 112.306 206.712 110.958 203.948C109.61 201.185 110.784 197.775 113.548 196.427L135.523 185.709C138.287 184.361 141.697 185.535 143.045 188.298C144.393 191.062 143.219 194.472 140.455 195.82Z" fill="#E32652"/>
<path d="M201.409 166.086L177.478 177.757C158.806 186.865 149.379 183.619 140.272 164.946L121.498 126.455C112.391 107.783 115.637 98.3558 134.31 89.2486L158.24 77.577C176.913 68.4698 186.34 71.7158 195.447 90.3882L214.22 128.879C223.36 147.619 220.081 156.979 201.409 166.086ZM139.241 99.36C126.029 105.804 125.166 108.311 131.61 121.524L150.383 160.014C156.827 173.227 159.334 174.09 172.547 167.646L196.477 155.974C209.689 149.53 210.553 147.023 204.109 133.811L185.335 95.3199C178.891 82.1076 176.384 81.2444 163.172 87.6884L139.241 99.36Z" fill="#E32652"/>
<path d="M178.991 149.9C177.239 150.755 175.157 150.935 173.252 150.279C172.349 149.968 171.516 149.457 170.784 148.813C170.02 148.101 169.39 147.323 168.963 146.447C168.108 144.694 167.995 142.58 168.616 140.774C169.41 138.468 171.408 136.576 173.83 135.895C174.3 135.833 174.77 135.77 175.24 135.708C175.744 135.713 176.247 135.718 176.682 135.756C177.218 135.828 177.687 135.933 178.188 136.106C179.993 136.727 181.59 138.118 182.445 139.871C182.872 140.747 183.097 141.722 183.188 142.763C183.245 143.736 183.135 144.708 182.824 145.611C182.651 146.112 182.446 146.546 182.14 146.945C181.934 147.38 181.629 147.779 181.323 148.179C180.984 148.511 180.645 148.843 180.274 149.107C179.868 149.472 179.463 149.67 178.991 149.9Z" fill="#E32652"/>
</svg>
