<svg width="67" height="67" viewBox="0 0 67 67" fill="none" xmlns="http://www.w3.org/2000/svg">
<path d="M32.4769 27.9122L24.8371 31.6384C20.624 33.6932 15.5261 31.9378 13.4713 27.7247C11.4164 23.5116 13.1717 18.4137 17.3848 16.3588L25.0246 12.6327L32.4769 27.9122ZM18.7456 19.1488C16.0866 20.4457 14.974 23.6771 16.2708 26.336C17.5677 28.995 20.7991 30.1077 23.458 28.8109L28.2891 26.4546L23.5675 16.7738L18.7364 19.1301L18.7456 19.1488Z" fill="#E32652"/>
<path d="M38.5589 40.3838L30.9191 44.11C26.706 46.1648 21.6082 44.4095 19.5533 40.1964C17.4984 35.9833 19.2537 30.8854 23.4668 28.8305L31.1066 25.1044L38.5589 40.3838ZM24.8367 31.6393C22.1778 32.9361 21.0652 36.1675 22.362 38.8265C23.6589 41.4854 26.8903 42.5981 29.5492 41.3012L34.3802 38.945L29.6586 29.2643L24.8276 31.6205L24.8367 31.6393Z" fill="#E32652"/>
<path d="M37.0109 56.5983C32.7978 58.6532 27.7 56.8978 25.6451 52.6847C23.5903 48.4716 25.3455 43.3737 29.5586 41.3188L37.1984 37.5926L40.9246 45.2324C42.9794 49.4455 41.224 54.5434 37.0109 56.5983ZM30.9194 44.1088C28.2604 45.4056 27.1479 48.6371 28.4447 51.296C29.7416 53.955 32.9729 55.0677 35.6319 53.7708C38.2908 52.474 39.4035 49.2425 38.1067 46.5836L35.7504 41.7525L30.9194 44.1088Z" fill="#E32652"/>
<path d="M37.3083 25.5565L29.6685 29.2826L22.207 13.9844L29.8468 10.2582C34.0599 8.20334 39.1578 9.95872 41.2126 14.1718C43.2862 18.3758 41.5214 23.5016 37.3083 25.5565ZM31.1073 25.104L35.9384 22.7477C38.5973 21.4509 39.7099 18.2194 38.413 15.5605C37.1162 12.9015 33.8848 11.7888 31.2259 13.0857L26.3948 15.4419L31.1073 25.104Z" fill="#E32652"/>
<path d="M43.3907 38.0269C39.1776 40.0818 34.0796 38.3265 32.0247 34.1134C29.9699 29.9003 31.7253 24.8023 35.9384 22.7475C40.1515 20.6926 45.2493 22.448 47.3042 26.6611C49.359 30.8742 47.6037 35.972 43.3907 38.0269ZM37.3083 25.5562C34.6493 26.853 33.5366 30.0845 34.8335 32.7434C36.1303 35.4024 39.3618 36.515 42.0207 35.2182C44.6797 33.9213 45.7923 30.6899 44.4954 28.031C43.1986 25.372 39.9859 24.2502 37.3083 25.5562Z" fill="#E32652"/>
</svg>
