<svg width="67" height="68" viewBox="0 0 67 68" fill="none" xmlns="http://www.w3.org/2000/svg">
<path d="M23.7403 53.283C23.1972 53.022 22.7182 52.6319 22.3496 52.1121L20.2267 49.4698C19.6982 48.8047 19.8097 47.8303 20.4846 47.3095C21.1596 46.7888 22.1296 46.8895 22.6768 47.5637L24.8375 50.2698C24.9887 50.4795 25.1759 50.5695 25.3435 50.5587L44.3783 49.5657C44.5647 49.5639 44.7405 49.4428 44.8227 49.2767L52.8778 33.0011C52.9599 32.835 52.9394 32.6424 52.8352 32.4781L41.9103 17.0848C41.797 16.939 41.6285 16.858 41.4609 16.8688L22.4261 17.8618C22.2397 17.8636 22.0639 17.9847 21.9817 18.1508L13.9266 34.4264C13.8444 34.5925 13.865 34.7852 13.9691 34.9494L17.3997 39.7734C17.929 40.5304 18.7995 40.926 19.7398 40.8526C20.6801 40.7791 21.4761 40.248 21.8871 39.4176L29.1481 24.7933C29.5225 24.0367 30.4697 23.7153 31.2374 24.0843C32.0051 24.4533 32.3312 25.3868 31.9568 26.1433L24.6958 40.7676C23.8008 42.576 22.033 43.7593 19.9848 43.917C17.9365 44.0746 16.0175 43.1751 14.8455 41.5153L11.415 36.6913C10.6495 35.6152 10.5517 34.2205 11.127 33.0579L19.1821 16.7823C19.7575 15.6197 20.933 14.837 22.2647 14.769L41.2995 13.776C42.5659 13.6994 43.7644 14.2754 44.4828 15.306L55.4078 30.6993C56.1732 31.7754 56.271 33.1701 55.6956 34.3326L47.6405 50.6083C47.0652 51.7708 45.8898 52.5536 44.5581 52.6216L25.5232 53.6147C24.8994 53.6575 24.2833 53.544 23.7403 53.283Z" fill="white"/>
<path d="M35.1767 45.395L31.8998 43.82C29.3158 42.5779 28.2415 39.5032 29.5018 36.9566C29.8762 36.2001 30.8234 35.8787 31.5911 36.2477C32.3588 36.6167 32.685 37.5501 32.3105 38.3067C31.8082 39.3216 32.2399 40.557 33.2698 41.052L36.5466 42.627C37.5765 43.122 38.8301 42.6966 39.3324 41.6817C39.8347 40.6668 39.403 39.4314 38.3732 38.9364L35.0963 37.3614C32.5123 36.1193 31.4379 33.0446 32.6983 30.498C33.9586 27.9515 37.0786 26.8928 39.6627 28.1348L42.9395 29.7098C45.5236 30.9519 46.5979 34.0266 45.3376 36.5732C44.9631 37.3297 44.016 37.6511 43.2482 37.2821C42.4805 36.9131 42.1544 35.9797 42.5288 35.2231C43.0311 34.2082 42.5995 32.9728 41.5696 32.4778L38.2928 30.9028C37.2629 30.4078 36.0093 30.8331 35.507 31.8481C35.0047 32.863 35.4363 34.0984 36.4662 34.5934L39.7431 36.1684C42.3271 37.4105 43.4014 40.4852 42.1411 43.0318C40.8808 45.5783 37.7607 46.637 35.1767 45.395Z" fill="white"/>
</svg>
