<svg width="67" height="67" viewBox="0 0 67 67" fill="none" xmlns="http://www.w3.org/2000/svg">
<path d="M43.2574 53.2074C41.2164 54.1884 38.9019 54.57 36.7349 54.1724L25.7516 52.1191C22.8407 51.5766 19.5485 49.0929 18.2608 46.491L11.4661 32.7619C10.0596 29.9202 10.6778 25.8768 12.8997 23.5753L20.5356 15.6335C22.0514 14.0597 24.9725 12.6557 27.1642 12.4474L38.2157 11.4071C41.424 11.0985 45.0377 13.1078 46.4441 15.9496L53.2297 29.6603C54.5266 32.2806 54.4766 36.3478 53.1182 38.9423L47.9981 48.7359C47.0285 50.6639 45.2984 52.2264 43.2574 53.2074ZM22.8157 17.7584L15.1798 25.7002C13.8805 27.0557 13.4624 29.7237 14.3026 31.4214L21.0883 45.132C21.9559 46.8851 24.4251 48.7363 26.3409 49.0947L37.3242 51.148C40.263 51.7 43.8956 49.954 45.2823 47.323L50.4024 37.5294C51.3049 35.7936 51.3352 32.7638 50.4676 31.0107L43.6728 17.2816C42.8418 15.6024 40.4511 14.2845 38.5581 14.4405L27.5065 15.4809C26.0141 15.65 23.842 16.694 22.8157 17.7584Z" fill="#E32652"/>
<path d="M32.9571 38.6721C32.6014 38.8431 32.1817 38.8849 31.7638 38.7431L27.2787 37.2212C26.4709 36.9471 26.0325 36.0613 26.3107 35.2652C26.5888 34.469 27.4876 34.037 28.2955 34.3112L31.3041 35.3321L34.9204 24.9822C35.1985 24.1861 36.0973 23.754 36.9052 24.0282C37.7131 24.3023 38.1514 25.1881 37.8733 25.9842L33.7486 37.7891C33.6048 38.2009 33.3129 38.5011 32.9571 38.6721Z" fill="#E32652"/>
</svg>
