<svg width="30" height="30" viewBox="0 0 30 30" fill="none" xmlns="http://www.w3.org/2000/svg">
<path d="M28.75 28.4375H1.25C0.7375 28.4375 0.3125 28.0125 0.3125 27.5C0.3125 26.9875 0.7375 26.5625 1.25 26.5625H28.75C29.2625 26.5625 29.6875 26.9875 29.6875 27.5C29.6875 28.0125 29.2625 28.4375 28.75 28.4375Z" fill="white"/>
<path d="M24.7246 28.45C24.2121 28.45 23.7871 28.025 23.7871 27.5125V21.9375C23.7871 21.425 24.2121 21 24.7246 21C25.2371 21 25.6621 21.425 25.6621 21.9375V27.5125C25.6621 28.025 25.2496 28.45 24.7246 28.45Z" fill="white"/>
<path d="M24.75 22.8746C22.7125 22.8746 21.0625 21.2246 21.0625 19.1871V16.3496C21.0625 14.3121 22.7125 12.6621 24.75 12.6621C26.7875 12.6621 28.4375 14.3121 28.4375 16.3496V19.1871C28.4375 21.2246 26.7875 22.8746 24.75 22.8746ZM24.75 14.5496C23.75 14.5496 22.9375 15.3621 22.9375 16.3621V19.1996C22.9375 20.1996 23.75 21.0121 24.75 21.0121C25.75 21.0121 26.5625 20.1996 26.5625 19.1996V16.3621C26.5625 15.3621 25.75 14.5496 24.75 14.5496Z" fill="white"/>
<path d="M17.8757 28.4377C17.3632 28.4377 16.9382 28.0127 16.9382 27.5002V7.53772C16.9382 5.55022 16.1008 4.7002 14.1508 4.7002H6.36328C4.40078 4.7002 3.55078 5.55022 3.55078 7.53772V27.5002C3.55078 28.0127 3.12578 28.4377 2.61328 28.4377C2.10078 28.4377 1.67578 28.0127 1.67578 27.5002V7.53772C1.67578 4.50022 3.33828 2.8252 6.36328 2.8252H14.1508C17.1633 2.8252 18.8132 4.50022 18.8132 7.53772V27.5002C18.8132 28.0127 18.3882 28.4377 17.8757 28.4377Z" fill="white"/>
<path d="M13.4375 11.25H7.25C6.7375 11.25 6.3125 10.825 6.3125 10.3125C6.3125 9.8 6.7375 9.375 7.25 9.375H13.4375C13.95 9.375 14.375 9.8 14.375 10.3125C14.375 10.825 13.95 11.25 13.4375 11.25Z" fill="white"/>
<path d="M13.4375 15.9375H7.25C6.7375 15.9375 6.3125 15.5125 6.3125 15C6.3125 14.4875 6.7375 14.0625 7.25 14.0625H13.4375C13.95 14.0625 14.375 14.4875 14.375 15C14.375 15.5125 13.95 15.9375 13.4375 15.9375Z" fill="white"/>
<path d="M10.3125 28.4375C9.8 28.4375 9.375 28.0125 9.375 27.5V22.8125C9.375 22.3 9.8 21.875 10.3125 21.875C10.825 21.875 11.25 22.3 11.25 22.8125V27.5C11.25 28.0125 10.825 28.4375 10.3125 28.4375Z" fill="white"/>
</svg>
